<?xml version="1.0" encoding="UTF-8" standalone="no"?>
<!-- Created with Inkscape (http://www.inkscape.org/) -->

<svg
   xmlns:dc="http://purl.org/dc/elements/1.1/"
   xmlns:cc="http://creativecommons.org/ns#"
   xmlns:rdf="http://www.w3.org/1999/02/22-rdf-syntax-ns#"
   xmlns:svg="http://www.w3.org/2000/svg"
   xmlns="http://www.w3.org/2000/svg"
   xmlns:xlink="http://www.w3.org/1999/xlink"
   xmlns:inkscape="http://www.inkscape.org/namespaces/inkscape"
   version="1.1"
   width="640"
   height="750"
   id="svg2">
  <defs
     id="defs4">
    <linearGradient
       id="linearGradient3840">
      <stop
         id="stop3842"
         style="stop-color:#2e65e2;stop-opacity:1"
         offset="0" />
      <stop
         id="stop3848"
         style="stop-color:#3d9b2d;stop-opacity:0.79636365"
         offset="0.72972971" />
      <stop
         id="stop3844"
         style="stop-color:#dce2e1;stop-opacity:0.45090908"
         offset="1" />
    </linearGradient>
    <inkscape:path-effect
       effect="spiro"
       id="path-effect5734" />
    <inkscape:path-effect
       effect="spiro"
       id="path-effect5347" />
    <inkscape:path-effect
       effect="spiro"
       id="path-effect5343" />
    <inkscape:path-effect
       effect="spiro"
       id="path-effect5339" />
    <inkscape:path-effect
       effect="spiro"
       id="path-effect5335" />
    <inkscape:path-effect
       effect="spiro"
       id="path-effect5331" />
    <inkscape:path-effect
       effect="spiro"
       id="path-effect5327" />
    <inkscape:path-effect
       effect="spiro"
       id="path-effect5323" />
    <linearGradient
       id="linearGradient5276">
      <stop
         id="stop5278"
         style="stop-color:#4aaf70;stop-opacity:1"
         offset="0" />
      <stop
         id="stop5280"
         style="stop-color:#4269ae;stop-opacity:1"
         offset="1" />
    </linearGradient>
    <linearGradient
       id="linearGradient5096">
      <stop
         id="stop5098"
         style="stop-color:#3a6bcc;stop-opacity:1"
         offset="0" />
      <stop
         id="stop5100"
         style="stop-color:#3ed449;stop-opacity:1"
         offset="1" />
    </linearGradient>
    <linearGradient
       id="linearGradient4703">
      <stop
         id="stop4705"
         style="stop-color:#2bb428;stop-opacity:0.82909089"
         offset="0" />
      <stop
         id="stop4711"
         style="stop-color:#3427a9;stop-opacity:0.56363636"
         offset="0.52777779" />
      <stop
         id="stop4707"
         style="stop-color:#2bb428;stop-opacity:0.824"
         offset="1" />
    </linearGradient>
    <linearGradient
       id="linearGradient3823">
      <stop
         id="stop3825"
         style="stop-color:#fafcfe;stop-opacity:1"
         offset="0" />
      <stop
         id="stop3827"
         style="stop-color:#fdffff;stop-opacity:0.34545454"
         offset="0.36363631" />
      <stop
         id="stop3829"
         style="stop-color:#0a060a;stop-opacity:0.45090908"
         offset="1" />
    </linearGradient>
    <linearGradient
       id="linearGradient3810">
      <stop
         id="stop3812"
         style="stop-color:#fafcfe;stop-opacity:1"
         offset="0" />
      <stop
         id="stop3818"
         style="stop-color:#fdffff;stop-opacity:0.34545454"
         offset="0.42424235" />
      <stop
         id="stop3814"
         style="stop-color:#0a060a;stop-opacity:0.45090908"
         offset="1" />
    </linearGradient>
    <linearGradient
       id="linearGradient4105">
      <stop
         id="stop4107"
         style="stop-color:#f5f1f8;stop-opacity:0.63272727"
         offset="0" />
      <stop
         id="stop4113"
         style="stop-color:#f4f5f9;stop-opacity:0.72363639"
         offset="0.15739936" />
      <stop
         id="stop4109"
         style="stop-color:#6896f9;stop-opacity:1"
         offset="1" />
    </linearGradient>
    <linearGradient
       id="linearGradient4081">
      <stop
         id="stop4083"
         style="stop-color:#3a3ca3;stop-opacity:1"
         offset="0" />
      <stop
         id="stop4085"
         style="stop-color:#10ebe7;stop-opacity:1"
         offset="1" />
    </linearGradient>
    <filter
       color-interpolation-filters="sRGB"
       id="filter3121">
      <feFlood
         id="feFlood3123"
         flood-opacity="0.5"
         flood-color="rgb(0,0,0)"
         result="flood" />
      <feComposite
         in2="SourceGraphic"
         operator="in"
         in="flood"
         result="composite1"
         id="feComposite3125" />
      <feGaussianBlur
         id="feGaussianBlur3127"
         stdDeviation="2"
         result="blur" />
      <feOffset
         id="feOffset3129"
         dx="4"
         dy="4"
         result="offset" />
      <feComposite
         in2="offset"
         operator="over"
         in="SourceGraphic"
         result="composite2"
         id="feComposite3131" />
    </filter>
    <radialGradient
       cx="566.47247"
       cy="328.90985"
       r="263.21323"
       fx="566.47247"
       fy="328.90985"
       id="radialGradient5102"
       xlink:href="#linearGradient5096"
       gradientUnits="userSpaceOnUse"
       gradientTransform="matrix(0.45786177,1.0198368,-2.3576684,3.5742661,977.79829,-1131.9725)" />
    <filter
       color-interpolation-filters="sRGB"
       id="filter5116">
      <feGaussianBlur
         id="feGaussianBlur5118"
         stdDeviation="3.251903" />
    </filter>
    <filter
       color-interpolation-filters="sRGB"
       id="filter3121-7">
      <feFlood
         id="feFlood3123-6"
         flood-opacity="0.5"
         flood-color="rgb(0,0,0)"
         result="flood" />
      <feComposite
         in2="SourceGraphic"
         operator="in"
         in="flood"
         result="composite1"
         id="feComposite3125-9" />
      <feGaussianBlur
         id="feGaussianBlur3127-1"
         stdDeviation="2"
         result="blur" />
      <feOffset
         id="feOffset3129-7"
         dx="4"
         dy="4"
         result="offset" />
      <feComposite
         in2="offset"
         operator="over"
         in="SourceGraphic"
         result="composite2"
         id="feComposite3131-1" />
    </filter>
    <radialGradient
       cx="101.45885"
       cy="50.105946"
       r="40.428349"
       fx="101.45885"
       fy="50.105946"
       id="radialGradient5288"
       xlink:href="#linearGradient5276"
       gradientUnits="userSpaceOnUse"
       gradientTransform="matrix(1.3153988,0.28425339,-0.22150165,1.2102428,-20.901449,-39.374436)" />
    <radialGradient
       cx="101.45885"
       cy="50.105946"
       r="40.428349"
       fx="101.45885"
       fy="50.105946"
       id="radialGradient5306"
       xlink:href="#linearGradient5276"
       gradientUnits="userSpaceOnUse"
       gradientTransform="matrix(1.3153988,0.28425339,-0.22150165,1.2102428,-20.901449,-39.374436)" />
    <radialGradient
       cx="101.45885"
       cy="50.105946"
       r="40.428349"
       fx="101.45885"
       fy="50.105946"
       id="radialGradient5308"
       xlink:href="#linearGradient5276"
       gradientUnits="userSpaceOnUse"
       gradientTransform="matrix(1.3153988,0.28425339,-0.22150165,1.2102428,-20.901449,-39.374436)" />
    <radialGradient
       cx="101.45885"
       cy="50.105946"
       r="40.428349"
       fx="101.45885"
       fy="50.105946"
       id="radialGradient5310"
       xlink:href="#linearGradient5276"
       gradientUnits="userSpaceOnUse"
       gradientTransform="matrix(1.3153988,0.28425339,-0.22150165,1.2102428,-20.901449,-39.374436)" />
    <radialGradient
       cx="101.45885"
       cy="50.105946"
       r="40.428349"
       fx="101.45885"
       fy="50.105946"
       id="radialGradient5312"
       xlink:href="#linearGradient5276"
       gradientUnits="userSpaceOnUse"
       gradientTransform="matrix(1.3153988,0.28425339,-0.22150165,1.2102428,-20.901449,-39.374436)" />
    <radialGradient
       cx="101.45885"
       cy="50.105946"
       r="40.428349"
       fx="101.45885"
       fy="50.105946"
       id="radialGradient5314"
       xlink:href="#linearGradient5276"
       gradientUnits="userSpaceOnUse"
       gradientTransform="matrix(1.3153988,0.28425339,-0.22150165,1.2102428,-20.901449,-39.374436)" />
    <linearGradient
       x1="878.8877"
       y1="750"
       x2="858.9129"
       y2="10"
       id="linearGradient3846"
       xlink:href="#linearGradient3840"
       gradientUnits="userSpaceOnUse"
       gradientTransform="matrix(0.40906075,0,0,1.0081904,2.8467326,-8.1465774)" />
    <filter
       color-interpolation-filters="sRGB"
       id="filter3106">
      <feFlood
         result="flood"
         flood-color="rgb(0,0,0)"
         flood-opacity="0.5"
         id="feFlood3108" />
      <feComposite
         in2="SourceGraphic"
         operator="in"
         in="flood"
         result="composite1"
         id="feComposite3110" />
      <feGaussianBlur
         result="blur"
         stdDeviation="2"
         id="feGaussianBlur3112" />
      <feOffset
         result="offset"
         dy="4"
         dx="4"
         id="feOffset3114" />
      <feComposite
         in2="offset"
         operator="over"
         in="SourceGraphic"
         result="composite2"
         id="feComposite3116" />
    </filter>
  </defs>
  <metadata
     id="metadata7">
    <rdf:RDF>
      <cc:Work
         rdf:about="">
        <dc:format>image/svg+xml</dc:format>
        <dc:type
           rdf:resource="http://purl.org/dc/dcmitype/StillImage" />
        <dc:title></dc:title>
      </cc:Work>
    </rdf:RDF>
  </metadata>
  <g
     id="layer3">
    <path
       d="m -692.75562,381.42859 -300,360 300,-360 z m -799.99998,20 -320,340 320,-340 z"
       id="path5736"
       style="fill:#2c1623;fill-opacity:1;stroke:#000000;stroke-width:1px;stroke-linecap:butt;stroke-linejoin:miter;stroke-opacity:1" />
    <rect
       width="654.49719"
       height="746.06091"
       x="2.0203049"
       y="-0.10152546"
       id="rect6122"
       style="fill:url(#linearGradient3846);fill-opacity:1;fill-rule:nonzero;stroke:none" />
  </g>
  <g
     transform="translate(0,-302.36218)"
     id="layer1">
    <path
       d="m 286.56266,335.10105 c 5.56333,20.04002 23.67566,59.34441 42.2278,99.3803 -12.14883,-37.85645 -24.75903,-78.73177 -33.52526,-99.3803 l -8.70254,0 z m 42.2278,99.3803 c 14.87263,46.34405 29.04544,88.12885 34.64043,82.49766 0.4984,-0.50162 0.90329,-1.43373 1.23627,-2.71726 -9.29075,-22.50487 -22.68105,-51.30414 -35.8767,-79.7804 z m 35.8767,79.7804 c 9.02625,21.86406 14.17936,37.77538 11.41753,41.56065 -10.89421,14.93106 -124.88268,-153.07449 -130.61051,-130.29461 -5.72782,22.77982 95.23644,133.96644 89.71593,158.13534 -4.03474,17.66394 -81.25051,-23.09488 -122.61096,-36.30429 l 0,25.65802 c 40.30064,24.28241 114.06362,53.19787 115.96894,71.76228 1.85144,18.03906 -73.18858,58.10005 -115.96894,88.24398 l 0,22.58441 c 46.7951,-26.77513 134.25367,-94.77415 136.52536,-76.03862 0.82364,6.794 -8.38823,25.57134 -22.10781,49.75696 -10.79269,60.15846 -75.58382,240.69543 -65.37802,252.08118 11.78766,13.15044 75.81788,-221.68211 88.84328,-209.58507 10.07004,9.35227 -4.31902,153.10537 -5.4057,220.67681 l 11.22356,0 c 6.97148,-69.50018 10.9624,-219.66092 21.30783,-221.1668 9.07812,-1.32145 25.06031,132.15674 38.7856,221.1668 l 15.65961,0 C 424.91233,927.3098 413.54273,843.84953 420.90618,837.12518 431.99356,827.00043 523.62547,978.08906 548.55934,992.49879 l 5.3331,0 C 565.09928,975.41002 453.46618,815.37973 464.20082,798.28181 474.94359,781.17053 587.2181,950.49283 594.8355,928.57646 c 5.64952,-16.25465 -78.73277,-138.5011 -121.5687,-210.52051 -10.71376,-1.08205 -17.50406,-3.64033 -17.47771,-8.73086 0.0163,-2.98816 2.46712,-6.29069 6.71476,-9.8445 -8.70009,-15.70022 -13.89514,-27.18875 -13.35672,-31.80524 1.00167,-8.58956 22.18448,-0.98508 49.18492,11.35902 C 548.23859,655.48235 623.87794,628.3995 620.846,611.50389 616.33893,586.3875 495.89986,595.49805 491.18096,571.76958 486.46203,548.0411 622.47242,460.77637 615.85236,436.21861 609.23242,411.66086 467.46886,554.7237 456.68597,540.2316 447.09235,527.33773 515.98891,377.9618 522.47603,335.10105 l -8.99334,0 c -21.53566,50.67814 -69.83756,257.7523 -79.58319,247.18118 -8.20783,-8.9031 2.91828,-161.95535 4.72699,-247.18118 l -13.30835,0 c -5.18125,70.48712 -8.13736,182.40667 -17.62312,184.14976 -8.36709,1.53754 -22.45808,-101.77427 -35.58589,-184.14976 l -20.33816,0 c 7.0438,72.67185 17.4867,161.46645 12.89619,179.1607 z m 133.66489,164.77262 c -15.43658,7.28492 -28.41564,14.24461 -35.8282,20.44622 3.14735,5.67969 6.79937,11.91123 10.76295,18.57536 23.5967,2.3831 66.47581,-2.46115 99.46083,-3.60817 -22.95553,-10.32853 -50.87708,-24.66123 -74.39558,-35.41341 z m 74.39558,35.41341 c 25.3536,11.40744 44.61894,17.95098 45.03999,9.35451 0.43309,-8.84787 -19.27103,-10.25058 -45.03999,-9.35451 z M 326.9967,729.32587 c 1.67281,-9.32424 2.05656,-15.75815 0.65447,-18.21897 -5.25149,-9.21668 -29.51913,49.01423 -53.25749,106.24024 18.29524,-30.36167 37.99101,-62.26247 52.60302,-88.02127 z m -52.60302,88.02127 c -28.28602,46.94174 -53.0905,90.06947 -49.96069,100.53847 3.50904,11.73742 26.46891,-43.90681 49.96069,-100.53847 z"
       id="rect5053"
       style="fill:url(#radialGradient5102);fill-opacity:1;fill-rule:nonzero;stroke:none" />
    <path
       d="m 577.19581,329.04205 c 9.34631,18.73937 39.77474,55.49278 70.94207,92.93022 -20.40985,-35.39945 -41.5948,-73.62184 -56.32193,-92.93022 l -14.62014,0 z m 70.94207,92.93022 c 24.98578,43.33619 48.79588,82.40904 58.19538,77.14332 0.8373,-0.46906 1.5175,-1.34067 2.0769,-2.54089 -15.6083,-21.04425 -38.1038,-47.97435 -60.27228,-74.60243 z m 60.27228,74.60243 c 15.164,20.44501 23.8211,35.32364 19.1813,38.86323 -18.3021,13.962 -209.801,-143.1395 -219.42366,-121.8381 -9.62265,21.30134 159.99576,125.27162 150.72138,147.87189 -6.7783,16.5175 -136.49961,-21.59595 -205.98452,-33.94804 l 0,23.99275 c 67.70445,22.7064 191.62512,49.74516 194.82602,67.10469 3.1104,16.86827 -122.95567,54.32919 -194.82602,82.51668 l 0,21.11862 c 78.61504,-25.03734 225.5441,-88.62302 229.3605,-71.10349 1.3837,6.35305 -14.0921,23.91169 -37.14078,46.52759 -18.13155,56.254 -126.97966,225.07359 -109.83406,235.72037 19.80308,12.29694 127.37286,-207.29429 149.25534,-195.98238 16.9175,8.74528 -7.2559,143.16838 -9.0815,206.35423 l 18.8554,0 c 11.712,-64.98941 18.4167,-205.40428 35.7968,-206.81242 15.2511,-1.23569 42.10094,123.57938 65.15924,206.81242 l 26.3079,0 c -11.9624,-60.95803 -31.0631,-139.00149 -18.6926,-145.2894 18.6266,-9.46763 172.5668,131.81491 214.4553,145.2894 l 8.9595,0 C 1045.133,927.79308 857.5912,778.14923 875.6252,762.16102 c 18.0477,-16.00071 206.6671,142.33208 219.4642,121.83814 9.4912,-15.19968 -132.2698,-129.51197 -204.2335,-196.85711 -17.9989,-1.01182 -29.4066,-3.40406 -29.3623,-8.1642 0.027,-2.79422 4.1447,-5.88241 11.2807,-9.20556 -14.616,-14.68123 -23.3436,-25.42412 -22.4391,-29.74099 1.6828,-8.03208 37.2696,-0.92114 82.6299,10.62178 83.8423,-22.02342 210.9152,-47.34851 205.8216,-63.14755 -7.5718,-23.48626 -209.9076,-14.96701 -217.8353,-37.15543 -7.9277,-22.18843 220.5677,-103.78943 209.446,-126.75332 C 1119.276,400.63291 881.1154,534.41054 863.0003,520.85902 846.8832,508.802 962.6284,369.12101 973.5267,329.04205 l -15.1087,0 c -36.1796,47.38898 -117.3261,241.02342 -133.6986,231.1384 -13.789,-8.32527 4.9027,-151.44398 7.9413,-231.1384 l -22.3578,0 c -8.7045,65.9123 -13.6707,170.56794 -29.6066,172.1979 -14.0566,1.43775 -37.72924,-95.16882 -59.78374,-172.1979 l -34.1678,0 c 11.8335,67.95523 29.3774,150.9868 21.6654,167.53265 z M 932.9651,650.65308 c -25.9332,6.81211 -47.7378,13.3201 -60.1908,19.11921 5.2875,5.31106 11.4228,11.13816 18.0816,17.36976 39.6421,2.22843 111.6783,-2.30141 167.0926,-3.37399 -38.5649,-9.65817 -85.4726,-23.06065 -124.9834,-33.11498 z m 124.9834,33.11498 c 42.5937,10.66707 74.9592,16.78591 75.6665,8.74737 0.7276,-8.27361 -32.375,-9.58528 -75.6665,-8.74737 z m -412.82412,13.91246 c 2.8103,-8.71907 3.455,-14.7354 1.0995,-17.03651 -8.82243,-8.61848 -49.59169,45.83306 -89.47176,99.34494 30.73572,-28.39111 63.82431,-58.22145 88.37226,-82.30843 z m -88.37226,82.30843 c -47.52008,43.89509 -89.19123,84.2237 -83.93319,94.01323 5.89512,10.97563 44.46737,-41.05713 83.93319,-94.01323 z"
       transform="matrix(0.59524352,0,0,1.0694077,-60.617152,-10.29745)"
       id="path5114"
       style="opacity:0.38909092;fill:#2a6cba;fill-opacity:1;fill-rule:nonzero;stroke:none;filter:url(#filter5116)" />
    <g
       transform="matrix(3.2470407,0,0,2.6632526,-21.877807,376.33457)"
       id="Livello_x0020_1"
       style="fill-rule:evenodd;filter:url(#filter3106)">
      <metadata
         id="CorelCorpID_0Corel-Layer" />
      <g
         id="_256052240">
        <path
           d="m 101.653,62.6881 c -0.3524,0.7759 -0.7337,1.5421 -1.1197,2.3014 -1.0548,2.0747 -2.1685,4.1256 -3.2875,6.1664 -1.0117,1.8454 -2.0353,3.6842 -3.0586,5.5234 -0.6939,1.2471 -1.4007,2.4961 -2.0681,3.7575 l -0.4,0.7558 -12.8445,0 1.1027,-2.0839 c 0.9414,-1.7793 1.975,-3.5317 2.95,-5.2957 0.6203,-1.1225 1.2368,-2.2531 1.8109,-3.3998 0.0496,-0.099 0.1069,-0.212 0.1684,-0.3341 -9.3669,-0.3414 -16.6616,-3.1366 -21.4668,-12.1033 -1.5021,-2.803 -2.4093,-6.794 -2.4093,-9.9878 0,-5.9681 2.0924,-11.5431 6.2923,-15.8181 7.2909,-7.421 19.2713,-9.0246 28.3073,-3.9361 1.8157,1.0225 4.3627,2.6084 5.7849,4.5352 0.5688,-0.7921 1.3277,-1.3685 2.2612,-2.0867 4.4154,-3.3966 9.6718,-5.3909 15.2675,-5.415 5.0144,-0.0216 9.9313,1.5602 13.9589,4.5549 5.8178,4.3255 8.9846,10.9419 8.9846,18.1658 0,6.1973 -2.5044,11.877 -7.0889,16.0447 -7.4725,6.7928 -18.6143,8.0672 -27.4445,3.1751 -1.6506,-0.9145 -3.3295,-1.9923 -4.6622,-3.3424 -0.3628,-0.3675 -0.6878,-0.7497 -1.0147,-1.1482 -0.008,-0.0096 -0.0158,-0.0193 -0.0239,-0.0291 z m 5.56,-15.1817 c 0,4.4222 2.1405,8.2085 6.1111,10.2277 4.3022,2.1879 9.6727,1.6976 13.3228,-1.5351 2.9442,-2.6074 4.2943,-6.6187 3.6414,-10.4834 -0.4286,-2.5365 -1.6917,-4.8229 -3.6703,-6.4778 -2.4626,-2.0596 -5.6275,-2.8327 -8.7853,-2.8327 -2.6825,0 -5.3175,1.343 -7.2026,3.1955 -2.1325,2.0955 -3.4171,4.8978 -3.4171,7.9058 z M 72.5389,46.5432 c 0,4.2328 0.2591,6.4475 3.5036,9.4446 3.4262,3.1649 7.824,4.2081 12.1774,2.3701 0.9017,-0.3807 1.7571,-0.8706 2.5467,-1.4489 2.1725,-1.5917 3.886,-3.8854 4.653,-6.4789 1.157,-3.912 -0.0497,-7.5972 -2.8014,-10.5161 -2.7556,-2.9227 -6.6066,-4.028 -10.5226,-3.3155 -3.4811,0.6334 -6.9151,2.7477 -8.5727,5.9463 -0.6453,1.2452 -0.984,2.5948 -0.984,3.9984 z"
           id="_256049696"
           style="fill:#0000ff" />
        <polygon
           points="101.51,11.9254 135.013,81.1275 125.77,81.1275 101.435,30.8633 74.9901,81.1276 65.7186,81.1276 "
           id="_256049576"
           style="fill:#00ff00" />
        <path
           d="m 126.593,56.2532 c 0.2962,-0.0591 9.8767,6.2454 8.1514,7.8337 -5.7041,5.1852 -13.5129,7.0961 -20.8327,5.5622 -2.2693,-0.4756 1.1072,-10.97 -0.8373,-12.0458 4.4476,2.27 9.8685,1.8827 13.5186,-1.3501 z m -35.8804,0.71 c 0.2776,-0.6107 -6.362,14.1708 -6.0283,13.5042 0.0496,-0.099 0.1069,-0.212 0.1684,-0.3341 -6.5145,-0.2374 -12.0268,-1.6618 -16.3961,-5.5235 -1.9132,-1.6909 8.8867,-5.9587 7.5864,-8.622 3.5892,3.2322 7.7697,4.2623 12.123,2.4243 0.9017,-0.3806 1.7571,-0.8706 2.5466,-1.4489 z"
           id="_256050848"
           style="fill:#0000ff" />
        <path
           d="m 87.8926,34.3542 3.3338,-6.4116 C 73.3948,24.2912 63.2729,36.2653 63.2729,47.641 c 0,11.3758 8.7683,18.793 16.4685,19.9746 l 3.4665,-6.2817 C 76.1454,60.968 70.3196,55.1251 70.3196,47.641 c 0,-7.4841 6.7551,-15.4565 17.573,-13.2868 z"
           id="_256051160"
           style="fill:#00ff00" />
        <g
           transform="matrix(0.878312,0,0,1,-30.0499,-60.2955)"
           id="g3075">
          <text
             x="105"
             y="148.5"
             id="_256052288"
             style="font-size:6.71640015px;font-weight:bold;fill:#0000ff;font-family:Arial">Consulenza Automobilistica</text>
        </g>
        <g
           transform="matrix(0.878312,0,0,1,5.9671,-67.3858)"
           id="g3078">
          <text
             x="105"
             y="148.5"
             id="_256051856"
             style="font-size:6.71640015px;font-weight:bold;fill:#0000ff;font-family:Arial">s.r.l.s.</text>
        </g>
      </g>
    </g>
  </g>
</svg>
