<?xml version="1.0" encoding="UTF-8" standalone="no"?>
<!-- Created with Inkscape (http://www.inkscape.org/) -->

<svg
   xmlns:dc="http://purl.org/dc/elements/1.1/"
   xmlns:cc="http://creativecommons.org/ns#"
   xmlns:rdf="http://www.w3.org/1999/02/22-rdf-syntax-ns#"
   xmlns:svg="http://www.w3.org/2000/svg"
   xmlns="http://www.w3.org/2000/svg"
   xmlns:sodipodi="http://sodipodi.sourceforge.net/DTD/sodipodi-0.dtd"
   xmlns:inkscape="http://www.inkscape.org/namespaces/inkscape"
   width="16"
   height="16"
   id="svg2"
   version="1.1"
   inkscape:version="0.48.3.1 r9886"
   sodipodi:docname="tabIcon.svg">
  <defs
     id="defs4">
    <inkscape:perspective
       sodipodi:type="inkscape:persp3d"
       inkscape:vp_x="0 : 8 : 1"
       inkscape:vp_y="0 : 1000 : 0"
       inkscape:vp_z="16 : 8 : 1"
       inkscape:persp3d-origin="8 : 5.3333333 : 1"
       id="perspective3794" />
  </defs>
  <sodipodi:namedview
     id="base"
     pagecolor="#ffffff"
     bordercolor="#666666"
     borderopacity="1.0"
     inkscape:pageopacity="0.0"
     inkscape:pageshadow="2"
     inkscape:zoom="22.4"
     inkscape:cx="9.4636893"
     inkscape:cy="6.388675"
     inkscape:document-units="px"
     inkscape:current-layer="layer1"
     showgrid="true"
     inkscape:window-width="893"
     inkscape:window-height="673"
     inkscape:window-x="387"
     inkscape:window-y="60"
     inkscape:window-maximized="0">
    <inkscape:grid
       type="xygrid"
       id="grid2992"
       empspacing="5"
       visible="true"
       enabled="true"
       snapvisiblegridlinesonly="true" />
  </sodipodi:namedview>
  <metadata
     id="metadata7">
    <rdf:RDF>
      <cc:Work
         rdf:about="">
        <dc:format>image/svg+xml</dc:format>
        <dc:type
           rdf:resource="http://purl.org/dc/dcmitype/StillImage" />
        <dc:title></dc:title>
      </cc:Work>
    </rdf:RDF>
  </metadata>
  <g
     inkscape:label="Livello 1"
     inkscape:groupmode="layer"
     id="layer1"
     transform="translate(0,-1036.3622)">
    <path
       style="fill:#0cf718;fill-opacity:1;fill-rule:nonzero;stroke:none"
       d="m 8.7595251,1037.066 -0.2290564,-0.2158 -0.8296075,1.5389 -0.2345903,0.3181 L 1,1049.3622 l 1.4436326,0.986 5.98506,-9.8599 5.4436974,10.337 1.53386,-0.8906 -5.9249087,-11.1957 -0.2406054,-0.3817 -0.1145282,-0.3753 -0.3070125,-0.4835 0.1087537,0.1273 z"
       id="path3857"
       inkscape:connector-curvature="0"
       sodipodi:nodetypes="ccccccccccccccc" />
    <path
       style="fill:#2817db;fill-opacity:1;fill-rule:nonzero;stroke:none"
       d="m 4.3997931,1039.7684 c -2.4376705,0 -4.4137931,1.7909 -4.4137931,4 0,2.2091 1.9761226,4 4.4137931,4 1.442947,0 2.7118726,-0.6234 3.5172414,-1.5937 0.7951192,1.0523 2.1415095,1.7187 3.6551725,1.7187 2.43767,0 4.413792,-1.7909 4.413792,-4 0,-2.2091 -1.976122,-4 -4.413793,-4 -1.442946,0 -2.7118717,0.6547 -3.5172405,1.625 -0.7931905,-1.064 -2.1316283,-1.75 -3.6551724,-1.75 z m 0,1.5938 c 1.523544,0 2.7586207,1.1156 2.7586207,2.4687 -3.827e-4,0.022 0,0.041 0,0.062 -0.037197,1.324 -1.2585159,2.375 -2.7586207,2.375 -1.5235439,0 -2.7586207,-1.0844 -2.7586207,-2.4375 0,-1.3531 1.2350768,-2.4687 2.7586207,-2.4687 z m 7.1724129,0.125 c 1.523544,0 2.758621,1.1156 2.758621,2.4687 0,1.3531 -1.235077,2.4375 -2.758621,2.4375 -1.523543,0 -2.7586198,-1.0844 -2.7586198,-2.4375 0,-1.3531 1.2350768,-2.4687 2.7586198,-2.4687 z"
       id="path3823"
       inkscape:connector-curvature="0" />
    <path
       style="fill:#0cf718;fill-opacity:1;fill-rule:nonzero;stroke:none"
       d="M 8.53125 0.5 L 7.6875 2.03125 L 7.53125 2.25 L 11.25 9.34375 L 12.71875 8.46875 L 9.46875 2.375 L 9.25 2 L 9.125 1.625 L 8.8125 1.125 L 8.9375 1.25 L 8.875 1.09375 L 8.625 0.59375 L 8.53125 0.5 z "
       transform="translate(0,1036.3622)"
       id="path3854" />
    <path
       style="fill:#0cf718;fill-opacity:1;fill-rule:nonzero;stroke:none"
       d="M 8.53125 0.5 L 7.6875 2.03125 L 7.46875 2.34375 L 3.59375 8.71875 L 4.96875 9.65625 L 9.4375 2.3125 L 9.25 2 L 9.125 1.625 L 8.8125 1.125 L 8.9375 1.25 L 8.75 0.71875 L 8.53125 0.5 z "
       transform="translate(0,1036.3622)"
       id="rect3836" />
    <rect
       style="fill:#2817db;fill-opacity:1;fill-rule:nonzero;stroke:none"
       id="rect3834"
       width="2.0942826"
       height="4.3245864"
       x="-267.48984"
       y="-958.67712"
       transform="matrix(-0.89375215,-0.44856115,0.24118279,-0.97047971,0,0)"
       ry="0" />
    <path
       sodipodi:type="arc"
       style="fill:none;stroke:#0cf718;stroke-width:0.97256541;stroke-linecap:square;stroke-linejoin:miter;stroke-miterlimit:4;stroke-opacity:0.97600002;stroke-dasharray:none;stroke-dashoffset:0"
       id="path3896"
       sodipodi:cx="4"
       sodipodi:cy="8.5"
       sodipodi:rx="4"
       sodipodi:ry="2.5"
       d="M 8,8.5 A 4,2.5 0 1 1 0.19526127,7.7284443"
       transform="matrix(0,0.80099936,-1.398877,0,16.169188,1040.5585)"
       sodipodi:start="0"
       sodipodi:end="3.4553369"
       sodipodi:open="true" />
  </g>
</svg>
