<?xml version="1.0" encoding="utf-8"?>
<svg version="1.1" width="168" height="40" viewBox="0 0 47.413333 11.288889" id="svg2" style="fill-rule:evenodd" xmlns="http://www.w3.org/2000/svg">
  <defs id="defs4">
    <filter color-interpolation-filters="sRGB" id="filter3121">
      <feFlood result="flood" flood-color="rgb(0,0,0)" flood-opacity="0.5" id="feFlood3123"/>
      <feComposite in2="SourceGraphic" operator="in" in="flood" result="composite1" id="feComposite3125"/>
      <feGaussianBlur result="blur" stdDeviation="2" id="feGaussianBlur3127"/>
      <feOffset result="offset" dy="4" dx="4" id="feOffset3129"/>
      <feComposite in2="offset" operator="over" in="SourceGraphic" result="composite2" id="feComposite3131"/>
    </filter>
  </defs>
  <g transform="matrix(0.19046997,0,0,0.1272275,-9.981416,-0.99622857)" id="Livello_x0020_1" style="filter:url(#filter3121)">
    <g id="_256052240">
      <path d="m 101.653,62.6881 c -0.3524,0.7759 -0.7337,1.5421 -1.1197,2.3014 -1.0548,2.0747 -2.1685,4.1256 -3.2875,6.1664 -1.0117,1.8454 -2.0353,3.6842 -3.0586,5.5234 -0.6939,1.2471 -1.4007,2.4961 -2.0681,3.7575 l -0.4,0.7558 -12.8445,0 1.1027,-2.0839 c 0.9414,-1.7793 1.975,-3.5317 2.95,-5.2957 0.6203,-1.1225 1.2368,-2.2531 1.8109,-3.3998 0.0496,-0.099 0.1069,-0.212 0.1684,-0.3341 -9.3669,-0.3414 -16.6616,-3.1366 -21.4668,-12.1033 -1.5021,-2.803 -2.4093,-6.794 -2.4093,-9.9878 0,-5.9681 2.0924,-11.5431 6.2923,-15.8181 7.2909,-7.421 19.2713,-9.0246 28.3073,-3.9361 1.8157,1.0225 4.3627,2.6084 5.7849,4.5352 0.5688,-0.7921 1.3277,-1.3685 2.2612,-2.0867 4.4154,-3.3966 9.6718,-5.3909 15.2675,-5.415 5.0144,-0.0216 9.9313,1.5602 13.9589,4.5549 5.8178,4.3255 8.9846,10.9419 8.9846,18.1658 0,6.1973 -2.5044,11.877 -7.0889,16.0447 -7.4725,6.7928 -18.6143,8.0672 -27.4445,3.1751 -1.6506,-0.9145 -3.3295,-1.9923 -4.6622,-3.3424 -0.3628,-0.3675 -0.6878,-0.7497 -1.0147,-1.1482 -0.008,-0.0096 -0.0158,-0.0193 -0.0239,-0.0291 z m 5.56,-15.1817 c 0,4.4222 2.1405,8.2085 6.1111,10.2277 4.3022,2.1879 9.6727,1.6976 13.3228,-1.5351 2.9442,-2.6074 4.2943,-6.6187 3.6414,-10.4834 -0.4286,-2.5365 -1.6917,-4.8229 -3.6703,-6.4778 -2.4626,-2.0596 -5.6275,-2.8327 -8.7853,-2.8327 -2.6825,0 -5.3175,1.343 -7.2026,3.1955 -2.1325,2.0955 -3.4171,4.8978 -3.4171,7.9058 z M 72.5389,46.5432 c 0,4.2328 0.2591,6.4475 3.5036,9.4446 3.4262,3.1649 7.824,4.2081 12.1774,2.3701 0.9017,-0.3807 1.7571,-0.8706 2.5467,-1.4489 2.1725,-1.5917 3.886,-3.8854 4.653,-6.4789 1.157,-3.912 -0.0497,-7.5972 -2.8014,-10.5161 -2.7556,-2.9227 -6.6066,-4.028 -10.5226,-3.3155 -3.4811,0.6334 -6.9151,2.7477 -8.5727,5.9463 -0.6453,1.2452 -0.984,2.5948 -0.984,3.9984 z" id="_256049696" style="fill:#0000ff"/>
      <polygon points="101.51,11.9254 135.013,81.1275 125.77,81.1275 101.435,30.8633 74.9901,81.1276 65.7186,81.1276 " id="_256049576" style="fill:#00ff00"/>
      <path d="m 126.593,56.2532 c 0.2962,-0.0591 9.8767,6.2454 8.1514,7.8337 -5.7041,5.1852 -13.5129,7.0961 -20.8327,5.5622 -2.2693,-0.4756 1.1072,-10.97 -0.8373,-12.0458 4.4476,2.27 9.8685,1.8827 13.5186,-1.3501 z m -35.8804,0.71 c 0.2776,-0.6107 -6.362,14.1708 -6.0283,13.5042 0.0496,-0.099 0.1069,-0.212 0.1684,-0.3341 -6.5145,-0.2374 -12.0268,-1.6618 -16.3961,-5.5235 -1.9132,-1.6909 8.8867,-5.9587 7.5864,-8.622 3.5892,3.2322 7.7697,4.2623 12.123,2.4243 0.9017,-0.3806 1.7571,-0.8706 2.5466,-1.4489 z" id="_256050848" style="fill:#0000ff"/>
      <path d="m 87.8926,34.3542 3.3338,-6.4116 C 73.3948,24.2912 63.2729,36.2653 63.2729,47.641 c 0,11.3758 8.7683,18.793 16.4685,19.9746 l 3.4665,-6.2817 C 76.1454,60.968 70.3196,55.1251 70.3196,47.641 c 0,-7.4841 6.7551,-15.4565 17.573,-13.2868 z" id="_256051160" style="fill:#00ff00"/>
      <g transform="matrix(0.878312,0,0,1,-30.0499,-60.2955)" id="g92">
        <text x="105" y="148.5" id="_256052288" style="font-size: 6.7164px; font-weight: bold; fill: rgb(0, 0, 255); font-family: Arial; white-space: pre;">Consulenza Automobilistica</text>
      </g>
      <g transform="matrix(0.878312,0,0,1,5.9671,-67.3858)" id="g95">
        <text x="105" y="148.5" id="_256051856" style="font-size: 6.7164px; font-weight: bold; fill: rgb(0, 0, 255); font-family: Arial; white-space: pre;">s.r.l.s.</text>
      </g>
    </g>
  </g>
  <text x="25.06986" y="7.7515202" id="text3001" transform="scale(0.83338347,1.1999278)" style="fill: rgb(219, 224, 224); font-family: &quot;URW Gothic L&quot;; font-size: 7.90222px; font-weight: 600; letter-spacing: 0.0049383px; line-height: 15.8044px; white-space: pre;">90  s r l s</text>
</svg>