<?xml version="1.0" encoding="UTF-8" standalone="no"?>
<!-- Created with Inkscape (http://www.inkscape.org/) -->

<svg
   xmlns:dc="http://purl.org/dc/elements/1.1/"
   xmlns:cc="http://creativecommons.org/ns#"
   xmlns:rdf="http://www.w3.org/1999/02/22-rdf-syntax-ns#"
   xmlns:svg="http://www.w3.org/2000/svg"
   xmlns="http://www.w3.org/2000/svg"
   xmlns:sodipodi="http://sodipodi.sourceforge.net/DTD/sodipodi-0.dtd"
   xmlns:inkscape="http://www.inkscape.org/namespaces/inkscape"
   width="450"
   height="350"
   id="svg2"
   version="1.1"
   inkscape:version="0.48.3.1 r9886"
   sodipodi:docname="90TVluce.svg"
   inkscape:export-filename="/home/dmike/Development/web-developing/agenzia90/www/public_html/resources/90TV.png"
   inkscape:export-xdpi="90"
   inkscape:export-ydpi="90">
  <defs
     id="defs4">
    <inkscape:perspective
       sodipodi:type="inkscape:persp3d"
       inkscape:vp_x="47.05954 : 387.93121 : 1"
       inkscape:vp_y="0 : 901.73988 : 0"
       inkscape:vp_z="131.91312 : 393.85428 : 1"
       inkscape:persp3d-origin="-146.29317 : 176.96201 : 1"
       id="perspective4248" />
    <inkscape:perspective
       sodipodi:type="inkscape:persp3d"
       inkscape:vp_x="239.89355 : 215.6251 : 1"
       inkscape:vp_y="0 : 1002.3522 : 0"
       inkscape:vp_z="322.55688 : 189.27472 : 1"
       inkscape:persp3d-origin="-128.31356 : -51.817672 : 1"
       id="perspective3760" />
    <filter
       inkscape:collect="always"
       id="filter4380">
      <feGaussianBlur
         inkscape:collect="always"
         stdDeviation="3.8853214"
         id="feGaussianBlur4382" />
    </filter>
    <filter
       id="filter3121"
       inkscape:label="Drop Shadow"
       color-interpolation-filters="sRGB">
      <feFlood
         id="feFlood3123"
         flood-opacity="0.5"
         flood-color="rgb(0,0,0)"
         result="flood" />
      <feComposite
         id="feComposite3125"
         in2="SourceGraphic"
         in="flood"
         operator="in"
         result="composite1" />
      <feGaussianBlur
         id="feGaussianBlur3127"
         stdDeviation="2"
         result="blur" />
      <feOffset
         id="feOffset3129"
         dx="4"
         dy="4"
         result="offset" />
      <feComposite
         id="feComposite3131"
         in2="offset"
         in="SourceGraphic"
         operator="over"
         result="composite2" />
    </filter>
    <filter
       inkscape:collect="always"
       id="filter5117">
      <feGaussianBlur
         inkscape:collect="always"
         stdDeviation="3.6"
         id="feGaussianBlur5119" />
    </filter>
    <filter
       inkscape:collect="always"
       id="filter5143">
      <feGaussianBlur
         inkscape:collect="always"
         stdDeviation="1"
         id="feGaussianBlur5145" />
    </filter>
    <filter
       inkscape:collect="always"
       id="filter5161">
      <feGaussianBlur
         inkscape:collect="always"
         stdDeviation="2.3"
         id="feGaussianBlur5163" />
    </filter>
  </defs>
  <sodipodi:namedview
     id="base"
     pagecolor="#ffffff"
     bordercolor="#666666"
     borderopacity="1.0"
     inkscape:pageopacity="0.0"
     inkscape:pageshadow="2"
     inkscape:zoom="1.4"
     inkscape:cx="194.30749"
     inkscape:cy="163.65483"
     inkscape:document-units="px"
     inkscape:current-layer="layer1"
     showgrid="true"
     inkscape:window-width="941"
     inkscape:window-height="726"
     inkscape:window-x="117"
     inkscape:window-y="82"
     inkscape:window-maximized="0">
    <inkscape:grid
       type="xygrid"
       id="grid2985"
       empspacing="5"
       visible="true"
       enabled="true"
       snapvisiblegridlinesonly="true" />
  </sodipodi:namedview>
  <metadata
     id="metadata7">
    <rdf:RDF>
      <cc:Work
         rdf:about="">
        <dc:format>image/svg+xml</dc:format>
        <dc:type
           rdf:resource="http://purl.org/dc/dcmitype/StillImage" />
        <dc:title></dc:title>
      </cc:Work>
    </rdf:RDF>
  </metadata>
  <g
     inkscape:label="Layer 1"
     inkscape:groupmode="layer"
     id="layer1"
     transform="translate(0,-702.36218)">
    <g
       sodipodi:type="inkscape:box3d"
       style="opacity:0.39917698;fill:#cdcfd3;fill-opacity:1;fill-rule:nonzero;stroke:none"
       id="g4234"
       inkscape:perspectiveID="#perspective3760"
       inkscape:corner0="311.12529 : 2.3659377 : 0 : 1"
       inkscape:corner7="116.86969 : -3.0336013 : 0.25 : 1">
      <path
         sodipodi:type="inkscape:box3dside"
         id="path4244"
         style="fill:#afafde;fill-rule:evenodd;stroke:none"
         inkscape:box3dsidetype="13"
         d="m 238.71387,847.33596 -1.94417,17.46754 0.18157,-0.004 1.8297,-17.45129 z" />
      <path
         sodipodi:type="inkscape:box3dside"
         id="path4240"
         style="fill:#8686bf;fill-rule:evenodd;stroke:none"
         inkscape:box3dsidetype="3"
         d="m 238.71387,829.996 -1.94417,-11.10965 0,45.91715 1.94417,-17.46754 z" />
      <path
         sodipodi:type="inkscape:box3dside"
         id="path4236"
         style="fill:#353564;fill-rule:evenodd;stroke:none"
         inkscape:box3dsidetype="6"
         d="m 238.71387,829.996 0,17.33996 0.0671,0.0126 0,-17.32608 z" />
      <path
         sodipodi:type="inkscape:box3dside"
         id="path4238"
         style="fill:#4d4d9f;fill-rule:evenodd;stroke:none"
         inkscape:box3dsidetype="5"
         d="m 238.71387,829.996 -1.94417,-11.10965 0.18157,0.0936 1.8297,11.04259 z" />
      <path
         sodipodi:type="inkscape:box3dside"
         id="path4246"
         style="fill:#e9e9ff;fill-rule:evenodd;stroke:none"
         inkscape:box3dsidetype="11"
         d="m 238.78097,830.02249 -1.8297,-11.04259 0,45.81996 1.8297,-17.45129 z" />
      <path
         sodipodi:type="inkscape:box3dside"
         id="path4242"
         style="fill:#d7d7ff;fill-rule:evenodd;stroke:none"
         inkscape:box3dsidetype="14"
         d="m 236.7697,818.88635 0,45.91715 0.18157,-0.004 0,-45.81996 z" />
    </g>
    <rect
       style="opacity:1;fill:none;stroke:#554e4e;stroke-width:12.00784587999999964;stroke-linecap:round;stroke-linejoin:round;stroke-miterlimit:4;stroke-opacity:1;stroke-dasharray:none"
       id="rect4395"
       width="220"
       height="140"
       x="20"
       y="722.36218" />
    <rect
       style="opacity:1;fill:none;stroke:#554e4e;stroke-width:13;stroke-linecap:square;stroke-linejoin:round;stroke-miterlimit:4;stroke-opacity:1;stroke-dasharray:none;stroke-dashoffset:0"
       id="rect4905"
       width="100"
       height="10"
       x="80.099998"
       y="872.36218" />
    <rect
       style="opacity:1;fill:none;stroke:#554e4e;stroke-width:9.91999999999999993;stroke-linecap:square;stroke-linejoin:round;stroke-miterlimit:4;stroke-opacity:1;stroke-dasharray:none;stroke-dashoffset:0"
       id="rect4907"
       width="100"
       height="130"
       x="300"
       y="782.36218" />
    <rect
       style="opacity:1;fill:none;stroke:#554e4e;stroke-width:6.69999980999999956;stroke-linecap:square;stroke-linejoin:round;stroke-miterlimit:4;stroke-opacity:1;stroke-dasharray:none;stroke-dashoffset:0"
       id="rect4909"
       width="40"
       height="60"
       x="200"
       y="952.36218" />
    <rect
       y="952.36218"
       x="200"
       height="60"
       width="40"
       id="rect4915"
       style="opacity:1;fill:#2597ef;stroke:none;stroke-width:6.69999980999999956;stroke-linecap:square;stroke-linejoin:round;stroke-miterlimit:4;stroke-opacity:1;stroke-dasharray:none;stroke-dashoffset:0;fill-opacity:1" />
    <rect
       y="782.36218"
       x="300"
       height="130"
       width="100"
       id="rect4917"
       style="opacity:1;fill:#2497ef;stroke:none;stroke-width:9.91999999999999993;stroke-linecap:square;stroke-linejoin:round;stroke-miterlimit:4;stroke-opacity:1;stroke-dasharray:none;stroke-dashoffset:0;fill-opacity:1" />
    <rect
       y="722.36218"
       x="20"
       height="140"
       width="220"
       id="rect4919"
       style="opacity:1;fill:#259aef;stroke:none;stroke-width:12.00784587999999964;stroke-linecap:round;stroke-linejoin:round;stroke-miterlimit:4;stroke-opacity:1;stroke-dasharray:none;fill-opacity:1" />
    <rect
       style="fill:#f0f0f0;fill-opacity:1;fill-rule:nonzero;stroke:none"
       id="rect4921"
       width="50"
       height="80"
       x="100"
       y="762.36218" />
    <rect
       y="762.36218"
       x="159.30002"
       height="80"
       width="50"
       id="rect4923"
       style="fill:#f0f0f0;fill-opacity:1;fill-rule:nonzero;stroke:none" />
    <text
       xml:space="preserve"
       style="font-size:33.20583725000000186px;font-style:normal;font-weight:normal;line-height:125%;letter-spacing:0px;word-spacing:0px;fill:#bf3f21;fill-opacity:1;stroke:none;font-family:Sans"
       x="42.496216"
       y="717.58124"
       id="text4925"
       sodipodi:linespacing="125%"
       transform="scale(0.9412603,1.0624054)"><tspan
         sodipodi:role="line"
         id="tspan4927"
         x="42.496216"
         y="717.58124">90</tspan></text>
    <text
       xml:space="preserve"
       style="font-size:30.47483062999999959px;font-style:normal;font-weight:normal;line-height:125%;letter-spacing:0px;word-spacing:0px;fill:#bf3f21;fill-opacity:1;stroke:none;font-family:Sans"
       x="38.430592"
       y="626.3465"
       id="text4929"
       sodipodi:linespacing="125%"
       transform="scale(0.78062811,1.2810197)"><tspan
         sodipodi:role="line"
         id="tspan4931"
         x="38.430592"
         y="626.3465">News</tspan></text>
    <rect
       style="fill:#98c692;fill-opacity:1;fill-rule:nonzero;stroke:none"
       id="rect4933"
       width="41.300007"
       height="20"
       x="100"
       y="772.36218" />
    <rect
       y="800.86127"
       x="100"
       height="12.099998"
       width="31.6"
       id="rect4935"
       style="fill:#98c692;fill-opacity:1;fill-rule:nonzero;stroke:none" />
    <rect
       y="772.36218"
       x="159.30002"
       height="20"
       width="41.300007"
       id="rect4937"
       style="fill:#98c692;fill-opacity:1;fill-rule:nonzero;stroke:none" />
    <rect
       style="fill:#98c692;fill-opacity:1;fill-rule:nonzero;stroke:none"
       id="rect4939"
       width="31.6"
       height="12.099998"
       x="159.30002"
       y="800.86127" />
    <g
       id="Livello_x0020_1"
       transform="matrix(0.39447205,0,0,0.28986884,2.2765984,834.17808)"
       style="fill-rule:evenodd;filter:url(#filter3121)">
      <metadata
         id="CorelCorpID_0Corel-Layer" />
      <g
         id="_256052240">
        <path
           id="_256049696"
           class="fil0"
           d="m 101.653,62.6881 c -0.3524,0.7759 -0.7337,1.5421 -1.1197,2.3014 -1.0548,2.0747 -2.1685,4.1256 -3.2875,6.1664 -1.0117,1.8454 -2.0353,3.6842 -3.0586,5.5234 -0.6939,1.2471 -1.4007,2.4961 -2.0681,3.7575 l -0.4,0.7558 -12.8445,0 1.1027,-2.0839 c 0.9414,-1.7793 1.975,-3.5317 2.95,-5.2957 0.6203,-1.1225 1.2368,-2.2531 1.8109,-3.3998 0.0496,-0.099 0.1069,-0.212 0.1684,-0.3341 -9.3669,-0.3414 -16.6616,-3.1366 -21.4668,-12.1033 -1.5021,-2.803 -2.4093,-6.794 -2.4093,-9.9878 0,-5.9681 2.0924,-11.5431 6.2923,-15.8181 7.2909,-7.421 19.2713,-9.0246 28.3073,-3.9361 1.8157,1.0225 4.3627,2.6084 5.7849,4.5352 0.5688,-0.7921 1.3277,-1.3685 2.2612,-2.0867 4.4154,-3.3966 9.6718,-5.3909 15.2675,-5.415 5.0144,-0.0216 9.9313,1.5602 13.9589,4.5549 5.8178,4.3255 8.9846,10.9419 8.9846,18.1658 0,6.1973 -2.5044,11.877 -7.0889,16.0447 -7.4725,6.7928 -18.6143,8.0672 -27.4445,3.1751 -1.6506,-0.9145 -3.3295,-1.9923 -4.6622,-3.3424 -0.3628,-0.3675 -0.6878,-0.7497 -1.0147,-1.1482 -0.008,-0.0096 -0.0158,-0.0193 -0.0239,-0.0291 z m 5.56,-15.1817 c 0,4.4222 2.1405,8.2085 6.1111,10.2277 4.3022,2.1879 9.6727,1.6976 13.3228,-1.5351 2.9442,-2.6074 4.2943,-6.6187 3.6414,-10.4834 -0.4286,-2.5365 -1.6917,-4.8229 -3.6703,-6.4778 -2.4626,-2.0596 -5.6275,-2.8327 -8.7853,-2.8327 -2.6825,0 -5.3175,1.343 -7.2026,3.1955 -2.1325,2.0955 -3.4171,4.8978 -3.4171,7.9058 z M 72.5389,46.5432 c 0,4.2328 0.2591,6.4475 3.5036,9.4446 3.4262,3.1649 7.824,4.2081 12.1774,2.3701 0.9017,-0.3807 1.7571,-0.8706 2.5467,-1.4489 2.1725,-1.5917 3.886,-3.8854 4.653,-6.4789 1.157,-3.912 -0.0497,-7.5972 -2.8014,-10.5161 -2.7556,-2.9227 -6.6066,-4.028 -10.5226,-3.3155 -3.4811,0.6334 -6.9151,2.7477 -8.5727,5.9463 -0.6453,1.2452 -0.984,2.5948 -0.984,3.9984 z"
           inkscape:connector-curvature="0"
           style="fill:#0000ff" />
        <polygon
           id="_256049576"
           class="fil1"
           points="74.9901,81.1276 65.7186,81.1276 101.51,11.9254 135.013,81.1275 125.77,81.1275 101.435,30.8633 "
           style="fill:#00ff00" />
        <path
           id="_256050848"
           class="fil0"
           d="m 126.593,56.2532 c 0.2962,-0.0591 9.8767,6.2454 8.1514,7.8337 -5.7041,5.1852 -13.5129,7.0961 -20.8327,5.5622 -2.2693,-0.4756 1.1072,-10.97 -0.8373,-12.0458 4.4476,2.27 9.8685,1.8827 13.5186,-1.3501 z m -35.8804,0.71 c 0.2776,-0.6107 -6.362,14.1708 -6.0283,13.5042 0.0496,-0.099 0.1069,-0.212 0.1684,-0.3341 -6.5145,-0.2374 -12.0268,-1.6618 -16.3961,-5.5235 -1.9132,-1.6909 8.8867,-5.9587 7.5864,-8.622 3.5892,3.2322 7.7697,4.2623 12.123,2.4243 0.9017,-0.3806 1.7571,-0.8706 2.5466,-1.4489 z"
           inkscape:connector-curvature="0"
           style="fill:#0000ff" />
        <path
           id="_256051160"
           class="fil1"
           d="m 87.8926,34.3542 3.3338,-6.4116 C 73.3948,24.2912 63.2729,36.2653 63.2729,47.641 c 0,11.3758 8.7683,18.793 16.4685,19.9746 l 3.4665,-6.2817 C 76.1454,60.968 70.3196,55.1251 70.3196,47.641 c 0,-7.4841 6.7551,-15.4565 17.573,-13.2868 z"
           inkscape:connector-curvature="0"
           style="fill:#00ff00" />
        <g
           transform="matrix(0.878312,0,0,1,-30.0499,-60.2955)"
           id="g92">
          <text
             x="105"
             y="148.5"
             id="_256052288"
             class="fil0 fnt0"
             style="font-size:6.71640015px;font-weight:bold;fill:#0000ff;font-family:Arial">Consulenza Automobilistica</text>
        </g>
        <g
           transform="matrix(0.878312,0,0,1,5.9671,-67.3858)"
           id="g95">
          <text
             x="105"
             y="148.5"
             id="_256051856"
             class="fil0 fnt0"
             style="font-size:6.71640015px;font-weight:bold;fill:#0000ff;font-family:Arial">s.r.l.s.</text>
        </g>
      </g>
    </g>
    <g
       style="fill-rule:evenodd;filter:url(#filter3121)"
       transform="matrix(0.17327102,0,0,0.1345196,191.66043,999.63512)"
       id="g5007">
      <metadata
         id="metadata5009" />
      <g
         id="g5011">
        <path
           style="fill:#0000ff"
           inkscape:connector-curvature="0"
           d="m 101.653,62.6881 c -0.3524,0.7759 -0.7337,1.5421 -1.1197,2.3014 -1.0548,2.0747 -2.1685,4.1256 -3.2875,6.1664 -1.0117,1.8454 -2.0353,3.6842 -3.0586,5.5234 -0.6939,1.2471 -1.4007,2.4961 -2.0681,3.7575 l -0.4,0.7558 -12.8445,0 1.1027,-2.0839 c 0.9414,-1.7793 1.975,-3.5317 2.95,-5.2957 0.6203,-1.1225 1.2368,-2.2531 1.8109,-3.3998 0.0496,-0.099 0.1069,-0.212 0.1684,-0.3341 -9.3669,-0.3414 -16.6616,-3.1366 -21.4668,-12.1033 -1.5021,-2.803 -2.4093,-6.794 -2.4093,-9.9878 0,-5.9681 2.0924,-11.5431 6.2923,-15.8181 7.2909,-7.421 19.2713,-9.0246 28.3073,-3.9361 1.8157,1.0225 4.3627,2.6084 5.7849,4.5352 0.5688,-0.7921 1.3277,-1.3685 2.2612,-2.0867 4.4154,-3.3966 9.6718,-5.3909 15.2675,-5.415 5.0144,-0.0216 9.9313,1.5602 13.9589,4.5549 5.8178,4.3255 8.9846,10.9419 8.9846,18.1658 0,6.1973 -2.5044,11.877 -7.0889,16.0447 -7.4725,6.7928 -18.6143,8.0672 -27.4445,3.1751 -1.6506,-0.9145 -3.3295,-1.9923 -4.6622,-3.3424 -0.3628,-0.3675 -0.6878,-0.7497 -1.0147,-1.1482 -0.008,-0.0096 -0.0158,-0.0193 -0.0239,-0.0291 z m 5.56,-15.1817 c 0,4.4222 2.1405,8.2085 6.1111,10.2277 4.3022,2.1879 9.6727,1.6976 13.3228,-1.5351 2.9442,-2.6074 4.2943,-6.6187 3.6414,-10.4834 -0.4286,-2.5365 -1.6917,-4.8229 -3.6703,-6.4778 -2.4626,-2.0596 -5.6275,-2.8327 -8.7853,-2.8327 -2.6825,0 -5.3175,1.343 -7.2026,3.1955 -2.1325,2.0955 -3.4171,4.8978 -3.4171,7.9058 z M 72.5389,46.5432 c 0,4.2328 0.2591,6.4475 3.5036,9.4446 3.4262,3.1649 7.824,4.2081 12.1774,2.3701 0.9017,-0.3807 1.7571,-0.8706 2.5467,-1.4489 2.1725,-1.5917 3.886,-3.8854 4.653,-6.4789 1.157,-3.912 -0.0497,-7.5972 -2.8014,-10.5161 -2.7556,-2.9227 -6.6066,-4.028 -10.5226,-3.3155 -3.4811,0.6334 -6.9151,2.7477 -8.5727,5.9463 -0.6453,1.2452 -0.984,2.5948 -0.984,3.9984 z"
           class="fil0"
           id="path5013" />
        <polygon
           style="fill:#00ff00"
           points="101.51,11.9254 135.013,81.1275 125.77,81.1275 101.435,30.8633 74.9901,81.1276 65.7186,81.1276 "
           class="fil1"
           id="polygon5015" />
        <path
           style="fill:#0000ff"
           inkscape:connector-curvature="0"
           d="m 126.593,56.2532 c 0.2962,-0.0591 9.8767,6.2454 8.1514,7.8337 -5.7041,5.1852 -13.5129,7.0961 -20.8327,5.5622 -2.2693,-0.4756 1.1072,-10.97 -0.8373,-12.0458 4.4476,2.27 9.8685,1.8827 13.5186,-1.3501 z m -35.8804,0.71 c 0.2776,-0.6107 -6.362,14.1708 -6.0283,13.5042 0.0496,-0.099 0.1069,-0.212 0.1684,-0.3341 -6.5145,-0.2374 -12.0268,-1.6618 -16.3961,-5.5235 -1.9132,-1.6909 8.8867,-5.9587 7.5864,-8.622 3.5892,3.2322 7.7697,4.2623 12.123,2.4243 0.9017,-0.3806 1.7571,-0.8706 2.5466,-1.4489 z"
           class="fil0"
           id="path5017" />
        <path
           style="fill:#00ff00"
           inkscape:connector-curvature="0"
           d="m 87.8926,34.3542 3.3338,-6.4116 C 73.3948,24.2912 63.2729,36.2653 63.2729,47.641 c 0,11.3758 8.7683,18.793 16.4685,19.9746 l 3.4665,-6.2817 C 76.1454,60.968 70.3196,55.1251 70.3196,47.641 c 0,-7.4841 6.7551,-15.4565 17.573,-13.2868 z"
           class="fil1"
           id="path5019" />
        <g
           id="g5021"
           transform="matrix(0.878312,0,0,1,-30.0499,-60.2955)">
          <text
             style="font-size:6.71640015px;font-weight:bold;fill:#0000ff;font-family:Arial"
             class="fil0 fnt0"
             id="text5023"
             y="148.5"
             x="105">Consulenza Automobilistica</text>
        </g>
        <g
           id="g5025"
           transform="matrix(0.878312,0,0,1,5.9671,-67.3858)">
          <text
             style="font-size:6.71640015px;font-weight:bold;fill:#0000ff;font-family:Arial"
             class="fil0 fnt0"
             id="text5027"
             y="148.5"
             x="105">s.r.l.s.</text>
        </g>
      </g>
    </g>
    <g
       style="fill-rule:evenodd;filter:url(#filter3121)"
       transform="matrix(0.24624342,0,0,0.22131455,292.09469,888.13379)"
       id="g5029">
      <metadata
         id="metadata5031" />
      <g
         id="g5033">
        <path
           style="fill:#0000ff"
           inkscape:connector-curvature="0"
           d="m 101.653,62.6881 c -0.3524,0.7759 -0.7337,1.5421 -1.1197,2.3014 -1.0548,2.0747 -2.1685,4.1256 -3.2875,6.1664 -1.0117,1.8454 -2.0353,3.6842 -3.0586,5.5234 -0.6939,1.2471 -1.4007,2.4961 -2.0681,3.7575 l -0.4,0.7558 -12.8445,0 1.1027,-2.0839 c 0.9414,-1.7793 1.975,-3.5317 2.95,-5.2957 0.6203,-1.1225 1.2368,-2.2531 1.8109,-3.3998 0.0496,-0.099 0.1069,-0.212 0.1684,-0.3341 -9.3669,-0.3414 -16.6616,-3.1366 -21.4668,-12.1033 -1.5021,-2.803 -2.4093,-6.794 -2.4093,-9.9878 0,-5.9681 2.0924,-11.5431 6.2923,-15.8181 7.2909,-7.421 19.2713,-9.0246 28.3073,-3.9361 1.8157,1.0225 4.3627,2.6084 5.7849,4.5352 0.5688,-0.7921 1.3277,-1.3685 2.2612,-2.0867 4.4154,-3.3966 9.6718,-5.3909 15.2675,-5.415 5.0144,-0.0216 9.9313,1.5602 13.9589,4.5549 5.8178,4.3255 8.9846,10.9419 8.9846,18.1658 0,6.1973 -2.5044,11.877 -7.0889,16.0447 -7.4725,6.7928 -18.6143,8.0672 -27.4445,3.1751 -1.6506,-0.9145 -3.3295,-1.9923 -4.6622,-3.3424 -0.3628,-0.3675 -0.6878,-0.7497 -1.0147,-1.1482 -0.008,-0.0096 -0.0158,-0.0193 -0.0239,-0.0291 z m 5.56,-15.1817 c 0,4.4222 2.1405,8.2085 6.1111,10.2277 4.3022,2.1879 9.6727,1.6976 13.3228,-1.5351 2.9442,-2.6074 4.2943,-6.6187 3.6414,-10.4834 -0.4286,-2.5365 -1.6917,-4.8229 -3.6703,-6.4778 -2.4626,-2.0596 -5.6275,-2.8327 -8.7853,-2.8327 -2.6825,0 -5.3175,1.343 -7.2026,3.1955 -2.1325,2.0955 -3.4171,4.8978 -3.4171,7.9058 z M 72.5389,46.5432 c 0,4.2328 0.2591,6.4475 3.5036,9.4446 3.4262,3.1649 7.824,4.2081 12.1774,2.3701 0.9017,-0.3807 1.7571,-0.8706 2.5467,-1.4489 2.1725,-1.5917 3.886,-3.8854 4.653,-6.4789 1.157,-3.912 -0.0497,-7.5972 -2.8014,-10.5161 -2.7556,-2.9227 -6.6066,-4.028 -10.5226,-3.3155 -3.4811,0.6334 -6.9151,2.7477 -8.5727,5.9463 -0.6453,1.2452 -0.984,2.5948 -0.984,3.9984 z"
           class="fil0"
           id="path5035" />
        <polygon
           style="fill:#00ff00"
           points="65.7186,81.1276 101.51,11.9254 135.013,81.1275 125.77,81.1275 101.435,30.8633 74.9901,81.1276 "
           class="fil1"
           id="polygon5037" />
        <path
           style="fill:#0000ff"
           inkscape:connector-curvature="0"
           d="m 126.593,56.2532 c 0.2962,-0.0591 9.8767,6.2454 8.1514,7.8337 -5.7041,5.1852 -13.5129,7.0961 -20.8327,5.5622 -2.2693,-0.4756 1.1072,-10.97 -0.8373,-12.0458 4.4476,2.27 9.8685,1.8827 13.5186,-1.3501 z m -35.8804,0.71 c 0.2776,-0.6107 -6.362,14.1708 -6.0283,13.5042 0.0496,-0.099 0.1069,-0.212 0.1684,-0.3341 -6.5145,-0.2374 -12.0268,-1.6618 -16.3961,-5.5235 -1.9132,-1.6909 8.8867,-5.9587 7.5864,-8.622 3.5892,3.2322 7.7697,4.2623 12.123,2.4243 0.9017,-0.3806 1.7571,-0.8706 2.5466,-1.4489 z"
           class="fil0"
           id="path5039" />
        <path
           style="fill:#00ff00"
           inkscape:connector-curvature="0"
           d="m 87.8926,34.3542 3.3338,-6.4116 C 73.3948,24.2912 63.2729,36.2653 63.2729,47.641 c 0,11.3758 8.7683,18.793 16.4685,19.9746 l 3.4665,-6.2817 C 76.1454,60.968 70.3196,55.1251 70.3196,47.641 c 0,-7.4841 6.7551,-15.4565 17.573,-13.2868 z"
           class="fil1"
           id="path5041" />
        <g
           id="g5043"
           transform="matrix(0.878312,0,0,1,-30.0499,-60.2955)">
          <text
             style="font-size:6.71640015px;font-weight:bold;fill:#0000ff;font-family:Arial"
             class="fil0 fnt0"
             id="text5045"
             y="148.5"
             x="105">Consulenza Automobilistica</text>
        </g>
        <g
           id="g5047"
           transform="matrix(0.878312,0,0,1,5.9671,-67.3858)">
          <text
             style="font-size:6.71640015px;font-weight:bold;fill:#0000ff;font-family:Arial"
             class="fil0 fnt0"
             id="text5049"
             y="148.5"
             x="105">s.r.l.s.</text>
        </g>
      </g>
    </g>
    <text
       transform="scale(1.2597476,0.79380981)"
       sodipodi:linespacing="125%"
       id="text5055"
       y="1217.0798"
       x="163.46028"
       style="font-size:10.07890034px;font-style:normal;font-weight:normal;line-height:125%;letter-spacing:0px;word-spacing:0px;fill:#bf3f21;fill-opacity:1;stroke:none;font-family:Sans"
       xml:space="preserve"><tspan
         y="1217.0798"
         x="163.46028"
         id="tspan5057"
         sodipodi:role="line">90</tspan></text>
    <text
       transform="scale(1.0447638,0.95715414)"
       sodipodi:linespacing="125%"
       id="text5059"
       y="1018.6456"
       x="193.20781"
       style="font-size:9.24995995px;font-style:normal;font-weight:normal;line-height:125%;letter-spacing:0px;word-spacing:0px;fill:#bf3f21;fill-opacity:1;stroke:none;font-family:Sans"
       xml:space="preserve"><tspan
         y="1018.6456"
         x="193.20781"
         id="tspan5061"
         sodipodi:role="line">News</tspan></text>
    <rect
       y="980.06281"
       x="223.5"
       height="23.800009"
       width="16.499996"
       id="rect5063"
       style="fill:#f0f0f0;fill-opacity:1;fill-rule:nonzero;stroke:none" />
    <rect
       y="983.03827"
       x="223.5"
       height="5.9500012"
       width="13.629004"
       id="rect5065"
       style="fill:#98c692;fill-opacity:1;fill-rule:nonzero;stroke:none" />
    <rect
       style="fill:#98c692;fill-opacity:1;fill-rule:nonzero;stroke:none"
       id="rect5067"
       width="10.42799"
       height="3.599746"
       x="223.5"
       y="991.51666" />
    <text
       transform="scale(0.90546435,1.1044057)"
       sodipodi:linespacing="125%"
       id="text5069"
       y="735.565"
       x="342.36578"
       style="font-size:23.90149498px;font-style:normal;font-weight:normal;line-height:125%;letter-spacing:0px;word-spacing:0px;fill:#bf3f21;fill-opacity:1;stroke:none;font-family:Sans"
       xml:space="preserve"><tspan
         y="735.565"
         x="342.36578"
         id="tspan5071"
         sodipodi:role="line">90</tspan></text>
    <text
       transform="scale(0.7509412,1.3316622)"
       sodipodi:linespacing="125%"
       id="text5073"
       y="632.51184"
       x="403.59485"
       style="font-size:21.93571091px;font-style:normal;font-weight:normal;line-height:125%;letter-spacing:0px;word-spacing:0px;fill:#bf3f21;fill-opacity:1;stroke:none;font-family:Sans"
       xml:space="preserve"><tspan
         y="632.51184"
         x="403.59485"
         id="tspan5075"
         sodipodi:role="line">News</tspan></text>
    <rect
       y="835.56195"
       x="358.20001"
       height="66.800026"
       width="41.800003"
       id="rect5077"
       style="fill:#f0f0f0;fill-opacity:1;fill-rule:nonzero;stroke:none" />
    <rect
       y="843.91248"
       x="357.79999"
       height="16.700006"
       width="34.526821"
       id="rect5079"
       style="fill:#98c692;fill-opacity:1;fill-rule:nonzero;stroke:none" />
    <rect
       style="fill:#98c692;fill-opacity:1;fill-rule:nonzero;stroke:none"
       id="rect5081"
       width="26.417601"
       height="10.103495"
       x="357.79999"
       y="867.70941" />
    <rect
       style="opacity:0.27027027;fill:#fbfbfb;stroke:none;stroke-width:12.00784587999999964;stroke-linecap:round;stroke-linejoin:round;stroke-miterlimit:4;stroke-opacity:1;stroke-dasharray:none;fill-opacity:1;filter:url(#filter5117)"
       id="rect5083"
       width="220"
       height="140"
       x="20"
       y="722.36218" />
    <rect
       style="opacity:0.276;fill:#fbfbfb;stroke:none;stroke-width:6.69999980999999956;stroke-linecap:square;stroke-linejoin:round;stroke-miterlimit:4;stroke-opacity:1;stroke-dasharray:none;stroke-dashoffset:0;fill-opacity:1;filter:url(#filter5143)"
       id="rect5121"
       width="40"
       height="60"
       x="200"
       y="952.36218" />
    <rect
       style="opacity:0.271;fill:#fbfbfb;stroke:none;stroke-width:9.91999999999999993;stroke-linecap:square;stroke-linejoin:round;stroke-miterlimit:4;stroke-opacity:1;stroke-dasharray:none;stroke-dashoffset:0;fill-opacity:1;filter:url(#filter5161)"
       id="rect5147"
       width="100"
       height="130"
       x="300"
       y="782.36218" />
  </g>
</svg>
