<?xml version="1.0" encoding="UTF-8" standalone="no"?>
<!-- Created with Inkscape (http://www.inkscape.org/) -->

<svg
   xmlns:dc="http://purl.org/dc/elements/1.1/"
   xmlns:cc="http://creativecommons.org/ns#"
   xmlns:rdf="http://www.w3.org/1999/02/22-rdf-syntax-ns#"
   xmlns:svg="http://www.w3.org/2000/svg"
   xmlns="http://www.w3.org/2000/svg"
   xmlns:sodipodi="http://sodipodi.sourceforge.net/DTD/sodipodi-0.dtd"
   xmlns:inkscape="http://www.inkscape.org/namespaces/inkscape"
   width="744.09448819"
   height="1052.3622047"
   id="svg2"
   version="1.1"
   inkscape:version="0.48.4 r9939"
   sodipodi:docname="New document 1">
  <defs
     id="defs4">
    <inkscape:perspective
       sodipodi:type="inkscape:persp3d"
       inkscape:vp_x="0 : 526.18109 : 1"
       inkscape:vp_y="0 : 1000 : 0"
       inkscape:vp_z="744.09448 : 526.18109 : 1"
       inkscape:persp3d-origin="372.04724 : 350.78739 : 1"
       id="perspective3760" />
    <filter
       inkscape:collect="always"
       id="filter4071">
      <feGaussianBlur
         inkscape:collect="always"
         stdDeviation="0.7"
         id="feGaussianBlur4073" />
    </filter>
    <filter
       inkscape:collect="always"
       id="filter4139">
      <feGaussianBlur
         inkscape:collect="always"
         stdDeviation="6.8850002"
         id="feGaussianBlur4141" />
    </filter>
  </defs>
  <sodipodi:namedview
     id="base"
     pagecolor="#ffffff"
     bordercolor="#666666"
     borderopacity="1.0"
     inkscape:pageopacity="0.0"
     inkscape:pageshadow="2"
     inkscape:zoom="0.35"
     inkscape:cx="381.9976"
     inkscape:cy="532.20085"
     inkscape:document-units="px"
     inkscape:current-layer="layer1"
     showgrid="true"
     inkscape:window-width="941"
     inkscape:window-height="726"
     inkscape:window-x="592"
     inkscape:window-y="146"
     inkscape:window-maximized="0">
    <inkscape:grid
       type="xygrid"
       id="grid2985" />
  </sodipodi:namedview>
  <metadata
     id="metadata7">
    <rdf:RDF>
      <cc:Work
         rdf:about="">
        <dc:format>image/svg+xml</dc:format>
        <dc:type
           rdf:resource="http://purl.org/dc/dcmitype/StillImage" />
        <dc:title></dc:title>
      </cc:Work>
    </rdf:RDF>
  </metadata>
  <g
     inkscape:label="Layer 1"
     inkscape:groupmode="layer"
     id="layer1">
    <path
       style="fill:none;stroke:#97999c;stroke-width:27.89999962;stroke-linecap:round;stroke-linejoin:round;stroke-miterlimit:4;stroke-opacity:1;stroke-dasharray:none"
       d="m 45.246701,238.08924 c -1.108,0 -2,0.892 -2,2 l 0,395.99999 c 0,1.108 0.892,2 2,2 l 675.999999,0 c 1.108,0 2,-0.892 2,-2 l 0,-395.99999 c 0,-1.108 -0.892,-2 -2,-2 l -675.999999,0 z M 238.05921,658.08923 c -8.19921,0 -14.81251,6.0977 -14.81251,13.6875 0,7.5898 6.6133,13.6875 14.81251,13.6875 l 290.375,0 c 8.1992,0 14.8125,-6.0977 14.8125,-13.6875 0,-7.5898 -6.6133,-13.6875 -14.8125,-13.6875 l -290.375,0 z"
       id="rect2987"
       inkscape:connector-curvature="0" />
    <rect
       style="fill:#11b8dd;fill-opacity:1;fill-rule:nonzero;stroke:none"
       id="rect3886"
       width="652.59991"
       height="372.60001"
       x="57.817577"
       y="251.2202" />
    <rect
       y="392.36215"
       x="631.81812"
       height="200"
       width="80"
       id="rect4047"
       style="fill:#f9f9f9;fill-opacity:1;fill-rule:nonzero;stroke:none;filter:url(#filter4071)" />
    <g
       id="g4023"
       transform="matrix(0.32431577,0,0,0.27377645,-207.69981,695.17053)">
      <path
         sodipodi:nodetypes="ccccccccccccccc"
         inkscape:connector-curvature="0"
         id="path3857"
         d="m 947.91414,-492.46297 -2.76912,-2.46782 -10.02925,17.59823 -2.83599,3.63767 -78.17143,121.84677 17.45223,11.2744 72.35398,-112.75323 65.80944,118.21013 18.543,-10.1851 -71.6268,-128.02933 -2.90869,-4.36496 -1.38456,-4.29177 -3.71155,-5.5291 1.31478,1.45574 z"
         style="fill:#0cf718;fill-opacity:1;fill-rule:nonzero;stroke:none" />
      <path
         inkscape:connector-curvature="0"
         id="path3823"
         d="m 895.20881,-461.55942 c -29.46926,0 -53.35881,20.48 -53.35881,45.74236 0,25.26236 23.88955,45.74236 53.35881,45.74236 17.44393,0 32.78411,-7.12893 42.5203,-18.22494 9.61221,12.03372 25.88894,19.65439 44.18778,19.65439 29.46921,0 53.35881,-20.47999 53.35881,-45.74235 0,-25.2624 -23.8896,-45.74238 -53.35882,-45.74238 -17.444,0 -32.78415,7.48686 -42.52031,18.58281 -9.58896,-12.16746 -25.76948,-20.01225 -44.18776,-20.01225 z m 0,18.22601 c 18.41828,0 33.34925,12.75756 33.34925,28.23109 -0.005,0.25155 0,0.46885 0,0.70893 -0.44968,15.14075 -15.21433,27.15959 -33.34925,27.15959 -18.41828,0 -33.34926,-12.40076 -33.34926,-27.8743 0,-15.47347 14.93098,-28.23099 33.34926,-28.23099 z m 86.70807,1.42945 c 18.41822,0 33.34922,12.75757 33.34922,28.23111 0,15.47341 -14.931,27.87421 -33.34922,27.87421 -18.41834,0 -33.34926,-12.4008 -33.34926,-27.87421 0,-15.47354 14.93092,-28.23111 33.34926,-28.23111 z"
         style="fill:#2817db;fill-opacity:1;fill-rule:nonzero;stroke:none" />
      <path
         inkscape:connector-curvature="0"
         id="path3854"
         d="m 945.15446,-494.79357 -10.20022,17.51076 -1.88892,2.50154 44.95641,81.12121 17.75583,-10.00614 -39.28954,-69.68562 -2.64456,-4.28835 -1.51111,-4.28835 -3.77785,-5.71779 1.5111,1.42945 -0.7555,-1.78682 -3.02236,-5.71778 -1.13328,-1.07211 z"
         style="fill:#0cf718;fill-opacity:1;fill-rule:nonzero;stroke:none" />
      <path
         inkscape:connector-curvature="0"
         id="rect3836"
         d="m 945.15446,-494.79357 -10.20022,17.51076 -2.64449,3.57363 -46.84528,72.90189 16.62252,10.72084 54.02322,-83.98009 -2.26675,-3.57363 -1.51111,-4.28835 -3.77785,-5.71779 1.5111,1.42945 -2.26675,-6.07518 -2.64439,-2.50153 z"
         style="fill:#0cf718;fill-opacity:1;fill-rule:nonzero;stroke:none" />
      <rect
         ry="0"
         transform="matrix(-0.90336347,-0.42887579,0.25409843,-0.96717836,0,0)"
         y="721.84961"
         x="-834.14539"
         height="49.623009"
         width="25.048634"
         id="rect3834"
         style="fill:#2817db;fill-opacity:1;fill-rule:nonzero;stroke:none" />
      <path
         sodipodi:open="true"
         sodipodi:end="3.4553369"
         sodipodi:start="0"
         transform="matrix(0,9.1599013,-16.911171,0,1037.4903,-452.52417)"
         d="M 8,8.5 C 8,9.8807119 6.209139,11 4,11 1.790861,11 0,9.8807119 0,8.5 0,8.238009 0.06589125,7.9776462 0.19526127,7.7284443"
         sodipodi:ry="2.5"
         sodipodi:rx="4"
         sodipodi:cy="8.5"
         sodipodi:cx="4"
         id="path3896"
         style="fill:none;stroke:#0cf718;stroke-width:0.97256541;stroke-linecap:square;stroke-linejoin:miter;stroke-miterlimit:4;stroke-opacity:0.97600002;stroke-dasharray:none;stroke-dashoffset:0"
         sodipodi:type="arc" />
      <text
         transform="scale(0.9794631,1.0209675)"
         sodipodi:linespacing="125%"
         id="text2990"
         y="-330.7038"
         x="961.64984"
         style="font-size:18.72370148px;font-style:normal;font-weight:normal;line-height:125%;letter-spacing:0px;word-spacing:0px;fill:#2817db;fill-opacity:1;stroke:none;font-family:Sans"
         xml:space="preserve"><tspan
           y="-330.7038"
           x="961.64984"
           id="tspan2992"
           sodipodi:role="line">s.r.l.s.</tspan></text>
      <text
         transform="scale(0.73225836,1.3656382)"
         sodipodi:linespacing="125%"
         id="text3762"
         y="-228.93163"
         x="1155.4668"
         style="font-size:18.5986824px;font-style:normal;font-weight:normal;line-height:125%;letter-spacing:0px;word-spacing:0px;fill:#2817db;fill-opacity:1;stroke:none;font-family:Sans"
         xml:space="preserve"><tspan
           y="-228.93163"
           x="1155.4668"
           id="tspan3764"
           sodipodi:role="line">Consulenza Automobilistica</tspan></text>
    </g>
    <rect
       style="fill:#d40000;fill-opacity:1;fill-rule:nonzero;stroke:none"
       id="rect4035"
       width="652.31396"
       height="38.571426"
       x="56.847546"
       y="250.54799" />
    <rect
       style="fill:#b3b3b3;fill-opacity:1;fill-rule:nonzero;stroke:none"
       id="rect4037"
       width="161.42857"
       height="15.714287"
       x="91.81813"
       y="265.21927" />
    <rect
       y="263.79071"
       x="287.53241"
       height="15.714287"
       width="81.428574"
       id="rect4039"
       style="fill:#b3b3b3;fill-opacity:1;fill-rule:nonzero;stroke:none"
       inkscape:transform-center-x="52.964607" />
    <rect
       inkscape:transform-center-x="85.486733"
       style="fill:#b3b3b3;fill-opacity:1;fill-rule:nonzero;stroke:none"
       id="rect4041"
       width="131.42857"
       height="15.714287"
       x="418.96097"
       y="263.79071" />
    <rect
       inkscape:transform-center-x="21.371685"
       style="fill:#b3b3b3;fill-opacity:1;fill-rule:nonzero;stroke:none"
       id="rect4043"
       width="32.857143"
       height="15.714287"
       x="677.53241"
       y="259.505" />
    <rect
       style="fill:#f9f9f9;fill-opacity:1;fill-rule:nonzero;stroke:none"
       id="rect4045"
       width="160"
       height="200"
       x="180.38957"
       y="395.2193" />
    <rect
       style="fill:#f9f9f9;fill-opacity:1;fill-rule:nonzero;stroke:none"
       id="rect4049"
       width="160"
       height="200"
       x="410.38956"
       y="395.2193" />
    <rect
       style="fill:#cdcfd3;fill-opacity:1;fill-rule:nonzero;stroke:none"
       id="rect4075"
       width="112.52793"
       height="41.614204"
       x="197.53242"
       y="412.36215" />
    <rect
       y="477.0119"
       x="199.55272"
       height="15.350238"
       width="78.182747"
       id="rect4077"
       style="fill:#cdcfd3;fill-opacity:1;fill-rule:nonzero;stroke:none" />
    <rect
       style="fill:#cdcfd3;fill-opacity:1;fill-rule:nonzero;stroke:none"
       id="rect4075-2"
       width="112.52793"
       height="41.614204"
       x="417.53241"
       y="412.36215" />
    <rect
       y="477.01193"
       x="419.5527"
       height="15.350238"
       width="78.182747"
       id="rect4077-8"
       style="fill:#cdcfd3;fill-opacity:1;fill-rule:nonzero;stroke:none" />
    <text
       xml:space="preserve"
       style="font-size:56.65307236px;font-style:normal;font-variant:normal;font-weight:bold;font-stretch:normal;text-align:start;line-height:125%;letter-spacing:0px;word-spacing:0px;writing-mode:lr-tb;text-anchor:start;fill:#000000;fill-opacity:1;stroke:none;font-family:Sawasdee;-inkscape-font-specification:Sawasdee Bold"
       x="88.417953"
       y="336.91095"
       id="text4115"
       sodipodi:linespacing="125%"
       transform="scale(0.90479364,1.1052244)"><tspan
         sodipodi:role="line"
         id="tspan4117"
         x="88.417953"
         y="336.91095">90 NEWS</tspan></text>
    <rect
       style="opacity:0.39917698;fill:#fcfbfc;fill-opacity:1;stroke:none;filter:url(#filter4139)"
       id="rect3776"
       width="651.42859"
       height="368.57144"
       x="-560"
       y="-361.92352"
       rx="14.178151"
       ry="15.152381"
       transform="matrix(0.9607005,0,0,0.94920455,608.87533,608.17724)" />
  </g>
</svg>
