<?xml version="1.0" encoding="UTF-8" standalone="no"?>
<!-- Created with Inkscape (http://www.inkscape.org/) -->

<svg
   xmlns:dc="http://purl.org/dc/elements/1.1/"
   xmlns:cc="http://creativecommons.org/ns#"
   xmlns:rdf="http://www.w3.org/1999/02/22-rdf-syntax-ns#"
   xmlns:svg="http://www.w3.org/2000/svg"
   xmlns="http://www.w3.org/2000/svg"
   xmlns:sodipodi="http://sodipodi.sourceforge.net/DTD/sodipodi-0.dtd"
   xmlns:inkscape="http://www.inkscape.org/namespaces/inkscape"
   width="450"
   height="350"
   id="svg2"
   version="1.1"
   inkscape:version="0.48.4 r9939"
   sodipodi:docname="90TV.svg"
   inkscape:export-filename="/home/dmike/Development/web-developing/agenzia90/www/public_html/resources/90TV.png"
   inkscape:export-xdpi="90"
   inkscape:export-ydpi="90">
  <defs
     id="defs4">
    <inkscape:perspective
       sodipodi:type="inkscape:persp3d"
       inkscape:vp_x="108.02547 : 182.52475 : 1"
       inkscape:vp_y="0 : 901.73988 : 0"
       inkscape:vp_z="192.87905 : 188.44782 : 1"
       inkscape:persp3d-origin="-85.327241 : -28.444444 : 1"
       id="perspective4248" />
    <inkscape:perspective
       sodipodi:type="inkscape:persp3d"
       inkscape:vp_x="239.89355 : 215.6251 : 1"
       inkscape:vp_y="0 : 1002.3522 : 0"
       inkscape:vp_z="322.55688 : 189.27472 : 1"
       inkscape:persp3d-origin="-128.31356 : -51.817672 : 1"
       id="perspective3760" />
    <filter
       inkscape:collect="always"
       id="filter4071"
       color-interpolation-filters="sRGB">
      <feGaussianBlur
         inkscape:collect="always"
         stdDeviation="0.7"
         id="feGaussianBlur4073" />
    </filter>
    <filter
       inkscape:collect="always"
       id="filter4139"
       color-interpolation-filters="sRGB">
      <feGaussianBlur
         inkscape:collect="always"
         stdDeviation="6.8850002"
         id="feGaussianBlur4141" />
    </filter>
    <filter
       inkscape:collect="always"
       id="filter4380">
      <feGaussianBlur
         inkscape:collect="always"
         stdDeviation="3.8853214"
         id="feGaussianBlur4382" />
    </filter>
  </defs>
  <sodipodi:namedview
     id="base"
     pagecolor="#ffffff"
     bordercolor="#666666"
     borderopacity="1.0"
     inkscape:pageopacity="0.0"
     inkscape:pageshadow="2"
     inkscape:zoom="0.35"
     inkscape:cx="366.22555"
     inkscape:cy="626.05351"
     inkscape:document-units="px"
     inkscape:current-layer="layer1"
     showgrid="true"
     inkscape:window-width="941"
     inkscape:window-height="726"
     inkscape:window-x="445"
     inkscape:window-y="149"
     inkscape:window-maximized="0">
    <inkscape:grid
       type="xygrid"
       id="grid2985"
       empspacing="5"
       visible="true"
       enabled="true"
       snapvisiblegridlinesonly="true" />
  </sodipodi:namedview>
  <metadata
     id="metadata7">
    <rdf:RDF>
      <cc:Work
         rdf:about="">
        <dc:format>image/svg+xml</dc:format>
        <dc:type
           rdf:resource="http://purl.org/dc/dcmitype/StillImage" />
        <dc:title></dc:title>
      </cc:Work>
    </rdf:RDF>
  </metadata>
  <g
     inkscape:label="Layer 1"
     inkscape:groupmode="layer"
     id="layer1"
     transform="translate(0,-702.36218)">
    <g
       id="g4162"
       transform="matrix(0.51874592,0,0,0.71842005,61.00675,546.77442)">
      <path
         inkscape:connector-curvature="0"
         id="rect2987"
         d="m 45.246701,238.08924 c -1.108,0 -2,0.892 -2,2 l 0,395.99999 c 0,1.108 0.892,2 2,2 l 675.999999,0 c 1.108,0 2,-0.892 2,-2 l 0,-395.99999 c 0,-1.108 -0.892,-2 -2,-2 l -675.999999,0 z M 238.05921,658.08923 c -8.19921,0 -14.81251,6.0977 -14.81251,13.6875 0,7.5898 6.6133,13.6875 14.81251,13.6875 l 290.375,0 c 8.1992,0 14.8125,-6.0977 14.8125,-13.6875 0,-7.5898 -6.6133,-13.6875 -14.8125,-13.6875 l -290.375,0 z"
         style="fill:none;stroke:#97999c;stroke-width:27.89999962;stroke-linecap:round;stroke-linejoin:round;stroke-miterlimit:4;stroke-opacity:1;stroke-dasharray:none" />
      <rect
         y="251.2202"
         x="57.817577"
         height="372.60001"
         width="652.59991"
         id="rect3886"
         style="fill:#11b8dd;fill-opacity:1;fill-rule:nonzero;stroke:none" />
      <rect
         style="fill:#f9f9f9;fill-opacity:1;fill-rule:nonzero;stroke:none;filter:url(#filter4071)"
         id="rect4047"
         width="80"
         height="200"
         x="631.81812"
         y="392.36215" />
      <g
         transform="matrix(0.32431577,0,0,0.27377645,-207.69981,695.17053)"
         id="g4023">
        <path
           style="fill:#0cf718;fill-opacity:1;fill-rule:nonzero;stroke:none"
           d="m 947.91414,-492.46297 -2.76912,-2.46782 -10.02925,17.59823 -2.83599,3.63767 -78.17143,121.84677 17.45223,11.2744 72.35398,-112.75323 65.80944,118.21013 18.543,-10.1851 -71.6268,-128.02933 -2.90869,-4.36496 -1.38456,-4.29177 -3.71155,-5.5291 1.31478,1.45574 z"
           id="path3857"
           inkscape:connector-curvature="0"
           sodipodi:nodetypes="ccccccccccccccc" />
        <path
           style="fill:#2817db;fill-opacity:1;fill-rule:nonzero;stroke:none"
           d="m 895.20881,-461.55942 c -29.46926,0 -53.35881,20.48 -53.35881,45.74236 0,25.26236 23.88955,45.74236 53.35881,45.74236 17.44393,0 32.78411,-7.12893 42.5203,-18.22494 9.61221,12.03372 25.88894,19.65439 44.18778,19.65439 29.46921,0 53.35881,-20.47999 53.35881,-45.74235 0,-25.2624 -23.8896,-45.74238 -53.35882,-45.74238 -17.444,0 -32.78415,7.48686 -42.52031,18.58281 -9.58896,-12.16746 -25.76948,-20.01225 -44.18776,-20.01225 z m 0,18.22601 c 18.41828,0 33.34925,12.75756 33.34925,28.23109 -0.005,0.25155 0,0.46885 0,0.70893 -0.44968,15.14075 -15.21433,27.15959 -33.34925,27.15959 -18.41828,0 -33.34926,-12.40076 -33.34926,-27.8743 0,-15.47347 14.93098,-28.23099 33.34926,-28.23099 z m 86.70807,1.42945 c 18.41822,0 33.34922,12.75757 33.34922,28.23111 0,15.47341 -14.931,27.87421 -33.34922,27.87421 -18.41834,0 -33.34926,-12.4008 -33.34926,-27.87421 0,-15.47354 14.93092,-28.23111 33.34926,-28.23111 z"
           id="path3823"
           inkscape:connector-curvature="0" />
        <path
           style="fill:#0cf718;fill-opacity:1;fill-rule:nonzero;stroke:none"
           d="m 945.15446,-494.79357 -10.20022,17.51076 -1.88892,2.50154 44.95641,81.12121 17.75583,-10.00614 -39.28954,-69.68562 -2.64456,-4.28835 -1.51111,-4.28835 -3.77785,-5.71779 1.5111,1.42945 -0.7555,-1.78682 -3.02236,-5.71778 -1.13328,-1.07211 z"
           id="path3854"
           inkscape:connector-curvature="0" />
        <path
           style="fill:#0cf718;fill-opacity:1;fill-rule:nonzero;stroke:none"
           d="m 945.15446,-494.79357 -10.20022,17.51076 -2.64449,3.57363 -46.84528,72.90189 16.62252,10.72084 54.02322,-83.98009 -2.26675,-3.57363 -1.51111,-4.28835 -3.77785,-5.71779 1.5111,1.42945 -2.26675,-6.07518 -2.64439,-2.50153 z"
           id="rect3836"
           inkscape:connector-curvature="0" />
        <rect
           style="fill:#2817db;fill-opacity:1;fill-rule:nonzero;stroke:none"
           id="rect3834"
           width="25.048634"
           height="49.623009"
           x="-834.14539"
           y="721.84961"
           transform="matrix(-0.90336347,-0.42887579,0.25409843,-0.96717836,0,0)"
           ry="0" />
        <path
           sodipodi:type="arc"
           style="fill:none;stroke:#0cf718;stroke-width:0.97256541;stroke-linecap:square;stroke-linejoin:miter;stroke-miterlimit:4;stroke-opacity:0.97600002;stroke-dasharray:none;stroke-dashoffset:0"
           id="path3896"
           sodipodi:cx="4"
           sodipodi:cy="8.5"
           sodipodi:rx="4"
           sodipodi:ry="2.5"
           d="M 8,8.5 C 8,9.8807119 6.209139,11 4,11 1.790861,11 0,9.8807119 0,8.5 0,8.238009 0.06589125,7.9776462 0.19526127,7.7284443"
           transform="matrix(0,9.1599013,-16.911171,0,1037.4903,-452.52417)"
           sodipodi:start="0"
           sodipodi:end="3.4553369"
           sodipodi:open="true" />
        <text
           xml:space="preserve"
           style="font-size:18.72370148px;font-style:normal;font-weight:normal;line-height:125%;letter-spacing:0px;word-spacing:0px;fill:#2817db;fill-opacity:1;stroke:none;font-family:Sans"
           x="961.64984"
           y="-330.7038"
           id="text2990"
           sodipodi:linespacing="125%"
           transform="scale(0.9794631,1.0209675)"><tspan
             sodipodi:role="line"
             id="tspan2992"
             x="961.64984"
             y="-330.7038">s.r.l.s.</tspan></text>
        <text
           xml:space="preserve"
           style="font-size:18.5986824px;font-style:normal;font-weight:normal;line-height:125%;letter-spacing:0px;word-spacing:0px;fill:#2817db;fill-opacity:1;stroke:none;font-family:Sans"
           x="1155.4668"
           y="-228.93163"
           id="text3762"
           sodipodi:linespacing="125%"
           transform="scale(0.73225836,1.3656382)"><tspan
             sodipodi:role="line"
             id="tspan3764"
             x="1155.4668"
             y="-228.93163">Consulenza Automobilistica</tspan></text>
      </g>
      <rect
         y="250.54799"
         x="56.847546"
         height="38.571426"
         width="652.31396"
         id="rect4035"
         style="fill:#d40000;fill-opacity:1;fill-rule:nonzero;stroke:none" />
      <rect
         y="265.21927"
         x="91.81813"
         height="15.714287"
         width="161.42857"
         id="rect4037"
         style="fill:#b3b3b3;fill-opacity:1;fill-rule:nonzero;stroke:none" />
      <rect
         inkscape:transform-center-x="52.964607"
         style="fill:#b3b3b3;fill-opacity:1;fill-rule:nonzero;stroke:none"
         id="rect4039"
         width="81.428574"
         height="15.714287"
         x="287.53241"
         y="263.79071" />
      <rect
         y="263.79071"
         x="418.96097"
         height="15.714287"
         width="131.42857"
         id="rect4041"
         style="fill:#b3b3b3;fill-opacity:1;fill-rule:nonzero;stroke:none"
         inkscape:transform-center-x="85.486733" />
      <rect
         y="259.505"
         x="677.53241"
         height="15.714287"
         width="32.857143"
         id="rect4043"
         style="fill:#b3b3b3;fill-opacity:1;fill-rule:nonzero;stroke:none"
         inkscape:transform-center-x="21.371685" />
      <rect
         y="395.2193"
         x="180.38957"
         height="200"
         width="160"
         id="rect4045"
         style="fill:#f9f9f9;fill-opacity:1;fill-rule:nonzero;stroke:none" />
      <rect
         y="395.2193"
         x="410.38956"
         height="200"
         width="160"
         id="rect4049"
         style="fill:#f9f9f9;fill-opacity:1;fill-rule:nonzero;stroke:none" />
      <rect
         y="412.36215"
         x="197.53242"
         height="41.614204"
         width="112.52793"
         id="rect4075"
         style="fill:#cdcfd3;fill-opacity:1;fill-rule:nonzero;stroke:none" />
      <rect
         style="fill:#cdcfd3;fill-opacity:1;fill-rule:nonzero;stroke:none"
         id="rect4077"
         width="78.182747"
         height="15.350238"
         x="199.55272"
         y="477.0119" />
      <rect
         y="412.36215"
         x="417.53241"
         height="41.614204"
         width="112.52793"
         id="rect4075-2"
         style="fill:#cdcfd3;fill-opacity:1;fill-rule:nonzero;stroke:none" />
      <rect
         style="fill:#cdcfd3;fill-opacity:1;fill-rule:nonzero;stroke:none"
         id="rect4077-8"
         width="78.182747"
         height="15.350238"
         x="419.5527"
         y="477.01193" />
      <text
         transform="scale(0.90479364,1.1052244)"
         sodipodi:linespacing="125%"
         id="text4115"
         y="336.91095"
         x="88.417953"
         style="font-size:56.65307236px;font-style:normal;font-variant:normal;font-weight:bold;font-stretch:normal;text-align:start;line-height:125%;letter-spacing:0px;word-spacing:0px;writing-mode:lr-tb;text-anchor:start;fill:#000000;fill-opacity:1;stroke:none;font-family:Sawasdee;-inkscape-font-specification:Sawasdee Bold"
         xml:space="preserve"><tspan
           y="336.91095"
           x="88.417953"
           id="tspan4117"
           sodipodi:role="line">90 NEWS</tspan></text>
      <rect
         transform="matrix(0.9607005,0,0,0.94920455,608.87533,608.17724)"
         ry="15.152381"
         rx="14.178151"
         y="-361.92352"
         x="-560"
         height="368.57144"
         width="651.42859"
         id="rect3776"
         style="opacity:0.39917698;fill:#fcfbfc;fill-opacity:1;stroke:none;filter:url(#filter4139)" />
    </g>
    <g
       sodipodi:type="inkscape:box3d"
       style="opacity:0.26337448;fill:#ddda90;fill-opacity:1;fill-rule:nonzero;stroke:none;filter:url(#filter4380)"
       id="g4220"
       inkscape:perspectiveID="#perspective4248"
       inkscape:corner0="6.1454544 : 0.64121936 : 0 : 1"
       inkscape:corner7="0.98939124 : -0.066611785 : 19.555931 : 1"
       transform="matrix(0.83471891,0,0,1.0023522,69.117697,0.0134737)">
      <path
         sodipodi:type="inkscape:box3dside"
         id="path4230"
         style="fill:#ddda90;fill-opacity:1;fill-rule:evenodd;stroke:none"
         inkscape:box3dsidetype="13"
         d="M 14.194278,905.62496 -69.824853,1003.7036 128.12954,874.96949 112.38839,873.58173 z" />
      <path
         sodipodi:type="inkscape:box3dside"
         id="path4226"
         style="fill:#ddda90;fill-opacity:1;fill-rule:evenodd;stroke:none"
         inkscape:box3dsidetype="3"
         d="m 14.194278,816.50792 -84.019131,-132.89309 0,320.08877 84.019131,-98.07864 z" />
      <path
         sodipodi:type="inkscape:box3dside"
         id="path4222"
         style="fill:#ddda90;fill-opacity:1;fill-rule:evenodd;stroke:none"
         inkscape:box3dsidetype="6"
         d="m 14.194278,816.50792 0,89.11704 98.194112,-32.04323 0,-23.84827 z" />
      <path
         sodipodi:type="inkscape:box3dside"
         id="path4232"
         style="fill:#ddda90;fill-opacity:1;fill-rule:evenodd;stroke:none"
         inkscape:box3dsidetype="11"
         d="m 112.38839,849.73346 15.74115,-4.31942 0,29.55545 -15.74115,-1.38776 z" />
      <path
         sodipodi:type="inkscape:box3dside"
         id="path4224"
         style="fill:#ddda90;fill-opacity:1;fill-rule:evenodd;stroke:none"
         inkscape:box3dsidetype="5"
         d="M 14.194278,816.50792 -69.824853,683.61483 128.12954,845.41404 112.38839,849.73346 z" />
      <path
         sodipodi:type="inkscape:box3dside"
         id="path4228"
         style="fill:#ddda90;fill-opacity:1;fill-rule:evenodd;stroke:none"
         inkscape:box3dsidetype="14"
         d="m -69.824853,683.61483 0,320.08877 197.954393,-128.73411 0,-29.55545 z" />
    </g>
    <g
       sodipodi:type="inkscape:box3d"
       style="opacity:0.39917698;fill:#cdcfd3;fill-opacity:1;fill-rule:nonzero;stroke:none"
       id="g4234"
       inkscape:perspectiveID="#perspective3760"
       inkscape:corner0="311.12529 : 2.3659377 : 0 : 1"
       inkscape:corner7="116.86969 : -3.0336013 : 0.25 : 1">
      <path
         sodipodi:type="inkscape:box3dside"
         id="path4244"
         style="fill:#afafde;fill-rule:evenodd;stroke:none"
         inkscape:box3dsidetype="13"
         d="m 238.71387,847.33596 -1.94417,17.46754 0.18157,-0.004 1.8297,-17.45129 z" />
      <path
         sodipodi:type="inkscape:box3dside"
         id="path4240"
         style="fill:#8686bf;fill-rule:evenodd;stroke:none"
         inkscape:box3dsidetype="3"
         d="m 238.71387,829.996 -1.94417,-11.10965 0,45.91715 1.94417,-17.46754 z" />
      <path
         sodipodi:type="inkscape:box3dside"
         id="path4236"
         style="fill:#353564;fill-rule:evenodd;stroke:none"
         inkscape:box3dsidetype="6"
         d="m 238.71387,829.996 0,17.33996 0.0671,0.0126 0,-17.32608 z" />
      <path
         sodipodi:type="inkscape:box3dside"
         id="path4238"
         style="fill:#4d4d9f;fill-rule:evenodd;stroke:none"
         inkscape:box3dsidetype="5"
         d="m 238.71387,829.996 -1.94417,-11.10965 0.18157,0.0936 1.8297,11.04259 z" />
      <path
         sodipodi:type="inkscape:box3dside"
         id="path4246"
         style="fill:#e9e9ff;fill-rule:evenodd;stroke:none"
         inkscape:box3dsidetype="11"
         d="m 238.78097,830.02249 -1.8297,-11.04259 0,45.81996 1.8297,-17.45129 z" />
      <path
         sodipodi:type="inkscape:box3dside"
         id="path4242"
         style="fill:#d7d7ff;fill-rule:evenodd;stroke:none"
         inkscape:box3dsidetype="14"
         d="m 236.7697,818.88635 0,45.91715 0.18157,-0.004 0,-45.81996 z" />
    </g>
  </g>
</svg>
