<?xml version="1.0" encoding="UTF-8" standalone="no"?>
<!-- Created with Inkscape (http://www.inkscape.org/) -->

<svg
   xmlns:dc="http://purl.org/dc/elements/1.1/"
   xmlns:cc="http://creativecommons.org/ns#"
   xmlns:rdf="http://www.w3.org/1999/02/22-rdf-syntax-ns#"
   xmlns:svg="http://www.w3.org/2000/svg"
   xmlns="http://www.w3.org/2000/svg"
   xmlns:sodipodi="http://sodipodi.sourceforge.net/DTD/sodipodi-0.dtd"
   xmlns:inkscape="http://www.inkscape.org/namespaces/inkscape"
   width="130"
   height="72"
   id="svg2"
   version="1.1"
   inkscape:version="0.48.3.1 r9886"
   sodipodi:docname="car12.svg">
  <defs
     id="defs4" />
  <sodipodi:namedview
     id="base"
     pagecolor="#ffffff"
     bordercolor="#666666"
     borderopacity="1.0"
     inkscape:pageopacity="0.0"
     inkscape:pageshadow="2"
     inkscape:zoom="5.2538462"
     inkscape:cx="142.57006"
     inkscape:cy="36.456701"
     inkscape:document-units="px"
     inkscape:current-layer="layer1"
     showgrid="false"
     inkscape:window-width="1006"
     inkscape:window-height="580"
     inkscape:window-x="199"
     inkscape:window-y="31"
     inkscape:window-maximized="0" />
  <metadata
     id="metadata7">
    <rdf:RDF>
      <cc:Work
         rdf:about="">
        <dc:format>image/svg+xml</dc:format>
        <dc:type
           rdf:resource="http://purl.org/dc/dcmitype/StillImage" />
        <dc:title></dc:title>
      </cc:Work>
    </rdf:RDF>
  </metadata>
  <g
     inkscape:label="Livello 1"
     inkscape:groupmode="layer"
     id="layer1"
     transform="translate(0,-980.3622)">
    <rect
       style="fill:#d9e1e2;fill-opacity:1;fill-rule:nonzero;stroke:#f5f8f3;stroke-width:0.60000001999999997;stroke-linecap:square;stroke-linejoin:miter;stroke-miterlimit:4;stroke-opacity:1;stroke-dasharray:none;stroke-dashoffset:0"
       id="rect3034"
       width="130.76135"
       height="72.708641"
       x="-0.57101023"
       y="-0.32796422"
       transform="translate(0,980.3622)" />
    <path
       style="fill:#0000ff;fill-opacity:1;fill-rule:nonzero;stroke:#f5f8f3;stroke-width:0.11420205;stroke-linecap:square;stroke-linejoin:miter;stroke-miterlimit:4;stroke-opacity:1;stroke-dasharray:none;stroke-dashoffset:0"
       d=""
       id="path3074"
       inkscape:connector-curvature="0"
       transform="translate(0,1002.3622)" />
    <path
       style="fill:#808000;fill-opacity:1;fill-rule:nonzero;stroke:#f5f8f3;stroke-width:0.11420205;stroke-linecap:square;stroke-linejoin:miter;stroke-miterlimit:4;stroke-opacity:1;stroke-dasharray:none;stroke-dashoffset:0"
       d=""
       id="path3078"
       inkscape:connector-curvature="0"
       transform="translate(0,1002.3622)" />
    <path
       style="fill:#808000;fill-opacity:1;fill-rule:nonzero;stroke:#f5f8f3;stroke-width:0.11420205;stroke-linecap:square;stroke-linejoin:miter;stroke-miterlimit:4;stroke-opacity:1;stroke-dasharray:none;stroke-dashoffset:0"
       d=""
       id="path3080"
       inkscape:connector-curvature="0"
       transform="translate(0,1002.3622)" />
    <path
       style="fill:#808000;fill-opacity:1;fill-rule:nonzero;stroke:#f5f8f3;stroke-width:0.11420205;stroke-linecap:square;stroke-linejoin:miter;stroke-miterlimit:4;stroke-opacity:1;stroke-dasharray:none;stroke-dashoffset:0"
       d=""
       id="path3082"
       inkscape:connector-curvature="0"
       transform="translate(0,1002.3622)" />
    <path
       style="fill:#808000;fill-opacity:1;fill-rule:nonzero;stroke:#f5f8f3;stroke-width:0.11420205;stroke-linecap:square;stroke-linejoin:miter;stroke-miterlimit:4;stroke-opacity:1;stroke-dasharray:none;stroke-dashoffset:0"
       d=""
       id="path3084"
       inkscape:connector-curvature="0"
       transform="translate(0,1002.3622)" />
    <path
       style="fill:#808000;fill-opacity:1;fill-rule:nonzero;stroke:#f5f8f3;stroke-width:0.11420205;stroke-linecap:square;stroke-linejoin:miter;stroke-miterlimit:4;stroke-opacity:1;stroke-dasharray:none;stroke-dashoffset:0"
       d=""
       id="path3088"
       inkscape:connector-curvature="0"
       transform="translate(0,1002.3622)" />
    <path
       style="fill:#808000;fill-opacity:1;fill-rule:nonzero;stroke:#f5f8f3;stroke-width:0.11420205;stroke-linecap:square;stroke-linejoin:miter;stroke-miterlimit:4;stroke-opacity:1;stroke-dasharray:none;stroke-dashoffset:0"
       d=""
       id="path3090"
       inkscape:connector-curvature="0"
       transform="translate(0,1002.3622)" />
    <path
       style="fill:#808000;fill-opacity:1;fill-rule:nonzero;stroke:#f5f8f3;stroke-width:0.11420205;stroke-linecap:square;stroke-linejoin:miter;stroke-miterlimit:4;stroke-opacity:1;stroke-dasharray:none;stroke-dashoffset:0"
       d=""
       id="path3092"
       inkscape:connector-curvature="0"
       transform="translate(0,1002.3622)" />
    <path
       style="fill:#808000;fill-opacity:1;fill-rule:nonzero;stroke:#f5f8f3;stroke-width:0.11420205;stroke-linecap:square;stroke-linejoin:miter;stroke-miterlimit:4;stroke-opacity:1;stroke-dasharray:none;stroke-dashoffset:0"
       d=""
       id="path3094"
       inkscape:connector-curvature="0"
       transform="translate(0,1002.3622)" />
    <path
       style="fill:#808000;fill-opacity:1;fill-rule:nonzero;stroke:#f5f8f3;stroke-width:0.11420205;stroke-linecap:square;stroke-linejoin:miter;stroke-miterlimit:4;stroke-opacity:1;stroke-dasharray:none;stroke-dashoffset:0"
       d=""
       id="path3096"
       inkscape:connector-curvature="0"
       transform="translate(0,1002.3622)" />
    <path
       style="fill:#808000;fill-opacity:1;fill-rule:nonzero;stroke:#f5f8f3;stroke-width:0.11420205;stroke-linecap:square;stroke-linejoin:miter;stroke-miterlimit:4;stroke-opacity:1;stroke-dasharray:none;stroke-dashoffset:0"
       d="m 35.612006,25.771252 c 0,-0.728222 0.448346,-0.662882 0.536069,0.07812 0.04268,0.360549 -0.02662,0.508747 -0.237921,0.508747 -0.206175,0 -0.298148,-0.181038 -0.298148,-0.586871 z"
       id="path3098"
       inkscape:connector-curvature="0"
       transform="translate(0,1002.3622)" />
    <path
       style="fill:#808000;fill-opacity:1;fill-rule:nonzero;stroke:#f5f8f3;stroke-width:0.11420205;stroke-linecap:square;stroke-linejoin:miter;stroke-miterlimit:4;stroke-opacity:1;stroke-dasharray:none;stroke-dashoffset:0"
       d=""
       id="path3100"
       inkscape:connector-curvature="0"
       transform="translate(0,1002.3622)" />
    <path
       style="fill:#808080;fill-opacity:1;fill-rule:nonzero;stroke:#f5f8f3;stroke-width:0.11420205;stroke-linecap:square;stroke-linejoin:miter;stroke-miterlimit:4;stroke-opacity:1;stroke-dasharray:none;stroke-dashoffset:0"
       d=""
       id="path3124"
       inkscape:connector-curvature="0"
       transform="translate(0,1002.3622)" />
    <g
       id="g4017"
       transform="matrix(1.5880816,0,0,1.7159432,-14.338004,-737.03583)">
      <path
         inkscape:connector-curvature="0"
         id="path3068"
         d="m 70.633968,1034.0549 c -0.575769,-0.074 -1.379886,-0.1977 -1.786927,-0.2741 l -0.740073,-0.1388 0.10742,-2.0326 c 0.05908,-1.1179 0.211274,-2.2926 0.338206,-2.6105 0.21334,-0.5343 0.185692,-0.6273 -0.365776,-1.2311 -0.716327,-0.7843 -0.885304,-1.4794 -0.878873,-3.6155 0.0044,-1.4687 0.06086,-1.7145 0.611886,-2.6648 0.333858,-0.5757 0.866987,-1.3205 1.184734,-1.6551 0.59897,-0.6306 0.734703,-1.0096 0.361624,-1.0096 -0.522937,0 -2.038379,2.0328 -2.454975,3.293 l -0.327143,0.9896 -0.321117,-1.0893 c -0.228792,-0.7762 -0.561878,-1.3371 -1.158508,-1.951 -0.78121,-0.8038 -0.903702,-0.8616 -1.825792,-0.8616 -1.002797,0 -1.721158,0.369 -2.737365,1.406 -1.041552,1.063 -2.521435,4.8283 -2.961161,7.5344 -0.110084,0.6774 -0.234547,1.2661 -0.276585,1.3081 -0.04204,0.042 -0.829645,-0.1095 -1.750237,-0.3367 l -1.673804,-0.4132 0.06836,-1.2756 c 0.103262,-1.9272 -0.336235,-5.7174 -0.760017,-6.5545 -0.584809,-1.1551 -1.68206,-1.2098 -2.777898,-0.1384 -1.001295,0.9789 -1.630797,2.3244 -2.423232,5.1793 -0.24068,0.8671 -0.383001,1.0944 -0.685116,1.0944 -0.209732,0 -0.432469,-0.1332 -0.494971,-0.2961 -0.167563,-0.4367 0.950979,-6.5868 1.555837,-8.5545 0.128716,-0.4188 0.38199,-1.2753 0.56283,-1.9034 0.44826,-1.5569 0.833524,-2.4155 0.849799,-1.8939 0.01592,0.5104 0.367106,0.847 0.883511,0.847 0.699269,0 1.75858,-0.5422 1.894212,-0.9695 0.128354,-0.4044 0.128859,-0.4044 0.348464,0.036 0.120958,0.2426 0.427017,0.49 0.680132,0.5498 0.822065,0.1941 0.637874,0.5039 -0.291921,0.491 -1.114827,-0.015 -1.49644,0.4117 -0.928536,1.0392 0.270475,0.2989 0.534782,0.3882 0.991267,0.3349 0.480128,-0.056 0.622453,0 0.622453,0.2403 0,1.1492 2.808818,1.4835 3.352085,0.399 0.116341,-0.2323 0.356642,-0.5284 0.534002,-0.6581 0.185042,-0.1353 0.338245,-0.5325 0.359481,-0.932 l 0.03701,-0.6961 2.093704,-0.3925 c 3.968711,-0.7441 4.991302,-0.8233 8.909779,-0.6908 2.073879,0.07 3.893974,0.1748 4.044656,0.2327 0.890719,0.3418 -0.432139,-3.2922 -2.140535,-5.8802 -0.46519,-0.7047 -1.097224,-1.4298 -1.404521,-1.6113 -0.307295,-0.1815 -0.55872,-0.3835 -0.55872,-0.4488 0,-0.2447 -0.98439,-0.5532 -2.137834,-0.6699 -1.236051,-0.1251 -5.056406,0.1787 -6.255431,0.4974 -0.758485,0.2016 -1.033292,0.6754 -1.596526,2.7526 -0.170317,0.6281 -0.444922,1.6131 -0.610233,2.1888 -0.165311,0.5758 -0.35324,1.6615 -0.417621,2.4127 -0.110323,1.2873 -0.13733,1.351 -0.469561,1.1069 -0.329373,-0.242 -0.333978,-0.3192 -0.07017,-1.1755 0.155283,-0.5041 0.433856,-1.6018 0.619051,-2.4392 0.185194,-0.8375 0.452314,-1.9451 0.593599,-2.4614 0.304429,-1.1124 0.327445,-1.7551 0.06857,-1.9151 -0.216688,-0.1339 -7.256156,9.1632 -8.067833,9.4699 -0.384078,0.1452 4.266961,-8.4505 3.951346,-7.7727 l -3.495295,7.8178 -1.71493,-0.1665 c -0.0018,-0.7202 0.174816,-0.5444 4.176873,-8.0447 -0.53029,0.106 -4.175071,7.5101 -3.949487,7.1975 0.135627,-0.1878 4.247509,-8.102 4.717472,-8.5145 0.469963,-0.4125 2.112594,-1.43 2.254489,-1.5633 1.495997,-1.4053 4.492314,-1.3531 8.417276,-0.6273 3.354823,0.6204 5.12748,1.6848 7.086786,4.2551 0.895344,1.1745 1.319178,2.1553 1.744857,4.0377 l 0.344336,1.5227 1.544937,0.01 c 2.552149,0.016 4.069986,0.9243 5.73326,3.4302 0.393531,0.5928 0.776631,1.3462 0.851337,1.674 0.07471,0.3278 0.196812,0.7861 0.27135,1.0185 l 0.135523,0.4224 -0.8199,-0.3608 c -1.350588,-0.5944 -3.723303,-0.835 -5.04058,-0.5112 -1.717751,0.4222 -3.119684,0.9887 -3.809936,1.5395 -0.522951,0.4172 -0.633418,0.6382 -0.651595,1.3032 l -0.02188,0.8009 -0.135176,-0.6662 c -0.274783,-1.3542 -1.598128,-3.68 -2.772232,-4.8722 -1.335876,-1.3565 -1.899098,-1.6783 -3.870992,-2.2122 -2.499035,-0.6766 -6.882069,-0.4504 -6.882069,0.3551 0,0.2122 0.09635,0.257 0.333089,0.1548 0.1832,-0.079 1.412564,-0.1836 2.731921,-0.2323 1.872022,-0.069 2.636547,-0.02 3.481269,0.2261 2.159012,0.6276 4.200389,2.115 5.167551,3.7652 0.722606,1.233 0.845898,1.7071 0.32497,1.2496 -0.928947,-0.8157 -2.229226,-0.4289 -3.004295,0.8936 -0.667107,1.1383 -0.667107,3.0613 0,4.1996 0.529793,0.904 1.578716,1.5182 2.247868,1.3161 0.709122,-0.2141 1.432782,-1.0389 1.793651,-2.0444 0.333379,-0.9288 0.345993,-0.9398 0.462951,-0.4018 0.06613,0.3041 0.130365,1.222 0.142752,2.0398 l 0.02252,1.4867 -0.904099,-0.1228 c -0.497255,-0.068 -1.03962,-0.1597 -1.205255,-0.2047 -0.165634,-0.045 -0.46432,0.098 -0.663748,0.3188 -0.297793,0.3291 -0.375089,0.7658 -0.432517,2.4436 -0.08029,2.3459 0.0739,2.6732 1.268263,2.6919 0.385091,0.01 1.042773,0.082 1.461514,0.1684 l 0.761347,0.1575 -0.666178,0 c -0.366399,0 -1.137262,-0.064 -1.713031,-0.1383 l 0,0 z m 6.953003,-15.051 c 0.08509,-0.1376 0.202534,-0.1338 0.378633,0.012 0.610389,0.5066 0.936312,-1.669 0.347502,-2.3197 -1.013039,-1.1194 -2.422502,0.549 -1.595317,1.8884 0.394545,0.6389 0.65555,0.7647 0.869182,0.419 l 0,0 z m -27.161115,-2.6079 c 0.226962,-0.4412 0.07878,-0.8089 -0.326051,-0.8089 -0.424198,0 -0.783553,0.3666 -0.783553,0.7994 0,0.4559 0.876166,0.4634 1.109604,0.01 l 0,0 z"
         style="fill:#0000ff;fill-opacity:1;fill-rule:nonzero;stroke:#f5f8f3;stroke-width:0.11420205;stroke-linecap:square;stroke-linejoin:miter;stroke-miterlimit:4;stroke-opacity:1;stroke-dasharray:none;stroke-dashoffset:0"
         sodipodi:nodetypes="cccssscccsscccscccccsccssccscsccccccscccccccssscsccsscccccsccccscscscccccccccccsssscccccsscccsccscscccscccccccccccssccc" />
      <path
         inkscape:connector-curvature="0"
         id="path3070"
         d="m 83.016283,1020.7262 c -0.0084,-0.2617 -0.187112,-1.0239 -0.39706,-1.6937 -0.209947,-0.6698 -0.335167,-1.2644 -0.278266,-1.3213 0.126784,-0.1267 1.364507,0.2928 1.950031,0.661 0.513418,0.3228 1.4861,1.7399 1.313073,1.9129 -0.06722,0.067 -0.329982,0.028 -0.583916,-0.088 -0.585768,-0.2669 -1.52672,0.054 -1.798483,0.6137 -0.180882,0.3725 -0.19078,0.3684 -0.205379,-0.085 z"
         style="fill:#0000ff;fill-opacity:1;fill-rule:nonzero;stroke:#f5f8f3;stroke-width:0.11420205;stroke-linecap:square;stroke-linejoin:miter;stroke-miterlimit:4;stroke-opacity:1;stroke-dasharray:none;stroke-dashoffset:0" />
      <path
         inkscape:connector-curvature="0"
         id="path3072"
         d="m 84.785414,1031.1472 c 0.185551,-2.0922 0.229413,-2.1778 1.298091,-2.5327 0.519246,-0.1725 0.996836,-0.2608 1.061311,-0.1964 0.172938,0.173 -0.331421,2.6121 -0.642814,3.1087 -0.219843,0.3507 -1.349342,1.0003 -1.739121,1.0003 -0.05492,0 -0.04478,-0.621 0.02253,-1.3799 z"
         style="fill:#808080;fill-opacity:1;fill-rule:nonzero;stroke:#f5f8f3;stroke-width:0.11420205;stroke-linecap:square;stroke-linejoin:miter;stroke-miterlimit:4;stroke-opacity:1;stroke-dasharray:none;stroke-dashoffset:0" />
      <path
         inkscape:connector-curvature="0"
         id="path3076"
         d="m 83.886164,1027.1738 c -0.06543,-0.3272 -0.118961,-0.9715 -0.118961,-1.4319 l 0,-0.8371 0.495053,0.3243 c 0.406369,0.2663 0.596837,0.286 1.063246,0.1099 0.50477,-0.1905 0.553146,-0.1784 0.433391,0.1083 -0.07414,0.1775 -0.218037,0.692 -0.319767,1.1432 -0.136554,0.6057 -0.308073,0.8672 -0.655329,0.9993 -0.698315,0.2655 -0.767777,0.2333 -0.897633,-0.416 z"
         style="fill:#0000ff;fill-opacity:1;fill-rule:nonzero;stroke:#f5f8f3;stroke-width:0.11420205;stroke-linecap:square;stroke-linejoin:miter;stroke-miterlimit:4;stroke-opacity:1;stroke-dasharray:none;stroke-dashoffset:0" />
      <path
         inkscape:connector-curvature="0"
         id="path3086"
         d="m 76.534407,1025.9563 0,-3.5253 -0.496692,-0.2263 c -0.710444,-0.3237 -1.083349,0.2147 -0.953427,1.3765 0.05268,0.4711 0.154753,1.5647 0.226829,2.4304 0.115282,1.3845 0.09511,1.56 -0.167633,1.4592 -0.200049,-0.077 -0.338481,-0.4708 -0.419206,-1.1932 -0.06629,-0.5932 -0.200037,-1.5439 -0.297218,-2.1128 -0.09718,-0.5688 -0.176694,-1.1802 -0.176694,-1.3587 0,-0.4367 2.621379,-1.7832 4.032334,-2.0712 1.068429,-0.2182 1.491931,-0.1933 3.617612,0.2124 l 1.083327,0.2068 -0.310279,0.4736 c -0.245743,0.375 -0.327585,1.1387 -0.393483,3.6715 -0.0815,3.1327 -0.07504,3.1993 0.316507,3.262 0.690063,0.1104 0.174957,0.5219 -0.911135,0.7279 -0.558465,0.1059 -1.945868,0.1925 -3.083116,0.1925 l -2.067726,0 0,-3.5253 z m 1.789469,3.0297 c 0.125238,-0.3264 -0.02231,-5.2687 -0.188689,-6.3205 -0.08644,-0.5465 -0.165246,-0.6223 -0.593115,-0.571 -0.875124,0.105 -0.925126,0.4402 -0.565039,3.7886 0.182472,1.6967 0.376713,3.1577 0.431646,3.2466 0.170214,0.2754 0.791819,0.1778 0.915197,-0.1437 l 0,0 z m 1.526057,-0.694 c 0.05672,-0.4449 0.126206,-1.9961 0.154415,-3.4471 0.0488,-2.5103 0.0316,-2.6514 -0.354846,-2.9111 -0.359428,-0.2416 -0.444461,-0.2347 -0.739391,0.06 -0.300982,0.301 -0.320261,0.6174 -0.199072,3.2671 0.0738,1.6136 0.21169,3.1377 0.306422,3.3868 0.282246,0.7424 0.716106,0.5569 0.832472,-0.3559 z m 1.692312,-0.2855 c 0.05925,-0.3925 0.210906,-1.8894 0.337005,-3.3262 0.183822,-2.0946 0.181533,-2.67 -0.01154,-2.9026 -0.356637,-0.4298 -0.750836,-0.3528 -0.955905,0.1866 -0.217338,0.5716 -0.486871,6.0134 -0.319455,6.4497 0.06464,0.1685 0.280568,0.3063 0.479844,0.3063 0.272637,0 0.388988,-0.1767 0.470056,-0.7138 z"
         style="fill:#ffff00;fill-opacity:1;fill-rule:nonzero;stroke:#f5f8f3;stroke-width:0.11420205;stroke-linecap:square;stroke-linejoin:miter;stroke-miterlimit:4;stroke-opacity:1;stroke-dasharray:none;stroke-dashoffset:0" />
      <path
         inkscape:connector-curvature="0"
         id="path3102"
         d="m 83.0685,1032.2892 c 0.198422,-1.7108 0.682506,-4.1346 0.911031,-4.5616 0.214271,-0.4004 0.22365,-0.4012 0.489526,-0.041 0.164324,0.2227 0.230171,0.5922 0.16721,0.9384 -0.05712,0.314 -0.190631,1.4147 -0.296685,2.4459 -0.106054,1.0311 -0.240454,1.9519 -0.298667,2.0461 -0.05821,0.094 -0.326897,0.1712 -0.597078,0.1712 -0.48043,0 -0.488687,-0.022 -0.375337,-0.9992 z"
         style="fill:#808080;fill-opacity:1;fill-rule:nonzero;stroke:#f5f8f3;stroke-width:0.11420205;stroke-linecap:square;stroke-linejoin:miter;stroke-miterlimit:4;stroke-opacity:1;stroke-dasharray:none;stroke-dashoffset:0" />
      <path
         inkscape:connector-curvature="0"
         id="path3104"
         d="m 74.416467,1033.336 c -0.253014,-0.6456 -0.09314,-4.034 0.238338,-5.0513 0.348577,-1.0698 0.796065,-0.8694 0.978281,0.4382 0.290831,2.0869 -0.196785,5.1365 -0.821309,5.1365 -0.104588,0 -0.282477,-0.2355 -0.39531,-0.5234 z"
         style="fill:#808080;fill-opacity:1;fill-rule:nonzero;stroke:#f5f8f3;stroke-width:0.11420205;stroke-linecap:square;stroke-linejoin:miter;stroke-miterlimit:4;stroke-opacity:1;stroke-dasharray:none;stroke-dashoffset:0" />
      <path
         inkscape:connector-curvature="0"
         id="path3106"
         d="m 71.490483,1033.4993 -0.761347,-0.1157 -0.05834,-1.4276 c -0.03209,-0.7851 -0.0068,-1.7058 0.05621,-2.0461 0.102049,-0.5511 0.183681,-0.6186 0.748307,-0.6186 0.348569,0 0.901422,0.054 1.228564,0.119 l 0.594802,0.119 0,2.0699 0,2.0699 -0.523426,-0.027 c -0.287884,-0.015 -0.866032,-0.079 -1.284773,-0.1428 z"
         style="fill:#808080;fill-opacity:1;fill-rule:nonzero;stroke:#f5f8f3;stroke-width:0.11420205;stroke-linecap:square;stroke-linejoin:miter;stroke-miterlimit:4;stroke-opacity:1;stroke-dasharray:none;stroke-dashoffset:0" />
      <path
         inkscape:connector-curvature="0"
         id="path3108"
         d="m 75.840813,1033.0057 c 0.05967,-0.1555 0.16525,-1.0335 0.234633,-1.951 l 0.126151,-1.6683 2.49803,0 c 1.373916,0 2.822184,-0.059 3.218373,-0.1318 l 0.720343,-0.1319 -0.149333,0.7029 c -0.08213,0.3866 -0.149333,1.1944 -0.149333,1.7952 0,0.6983 -0.08583,1.1253 -0.237921,1.1836 -0.173617,0.067 -0.237921,-0.2094 -0.237921,-1.0214 0,-0.6807 -0.09605,-1.1925 -0.247364,-1.318 -0.741275,-0.6152 -4.329954,-0.3451 -4.704147,0.3541 -0.103169,0.1928 -0.187581,0.8272 -0.187581,1.4099 0,1.0147 -0.02092,1.0594 -0.496206,1.0594 -0.360683,0 -0.466577,-0.077 -0.387724,-0.2827 z"
         style="fill:#808080;fill-opacity:1;fill-rule:nonzero;stroke:#f5f8f3;stroke-width:0.11420205;stroke-linecap:square;stroke-linejoin:miter;stroke-miterlimit:4;stroke-opacity:1;stroke-dasharray:none;stroke-dashoffset:0" />
      <path
         inkscape:connector-curvature="0"
         id="path3110"
         d="m 77.486091,1032.2843 c 0,-1.0276 0.109252,-1.0896 1.918934,-1.0896 l 1.316791,0 0,0.7501 c 0,0.4126 -0.06424,0.7892 -0.142753,0.8369 -0.07851,0.048 -0.806552,0.1485 -1.617862,0.2239 l -1.47511,0.1372 0,-0.8585 z"
         style="fill:#ffff00;fill-opacity:1;fill-rule:nonzero;stroke:#f5f8f3;stroke-width:0.11420205;stroke-linecap:square;stroke-linejoin:miter;stroke-miterlimit:4;stroke-opacity:1;stroke-dasharray:none;stroke-dashoffset:0" />
      <path
         inkscape:connector-curvature="0"
         id="path3112"
         d="m 61.036504,1030.8301 c -0.476887,-0.527 -1.061394,-2.5562 -1.061394,-3.6849 0,-2.3487 1.084232,-4.8963 2.083796,-4.8963 0.580036,0 1.2013,0.7096 1.416346,1.6178 0.375293,1.585 0.486979,2.5539 0.383961,3.3309 -0.403366,3.0424 -1.767741,4.7982 -2.822709,3.6325 l 0,0 z"
         style="fill:#ffff00;fill-opacity:1;fill-rule:nonzero;stroke:#f5f8f3;stroke-width:0.11420205;stroke-linecap:square;stroke-linejoin:miter;stroke-miterlimit:4;stroke-opacity:1;stroke-dasharray:none;stroke-dashoffset:0" />
      <path
         inkscape:connector-curvature="0"
         id="path3114"
         d="m 50.135189,1029.4341 c -0.705735,-0.9362 -0.876818,-3.1889 -0.370459,-4.8781 0.359329,-1.1987 0.606414,-1.5458 1.100319,-1.5458 1.287127,0 1.685521,4.489 0.541041,6.0962 -0.42136,0.5918 -0.96597,0.7322 -1.270901,0.3277 z"
         style="fill:#ffff00;fill-opacity:1;fill-rule:nonzero;stroke:#f5f8f3;stroke-width:0.11420205;stroke-linecap:square;stroke-linejoin:miter;stroke-miterlimit:4;stroke-opacity:1;stroke-dasharray:none;stroke-dashoffset:0" />
      <path
         inkscape:connector-curvature="0"
         id="path3116"
         d="m 46.413616,1023.5865 c -0.452561,-0.3576 -0.522508,-0.547 -0.516646,-1.399 0.0092,-1.3407 0.478797,-3.2122 0.879472,-3.5051 0.551395,-0.4032 1.037591,-0.3058 0.937906,0.188 -0.245586,1.2164 -0.68643,3.9333 -0.728866,4.492 l -0.04844,0.6377 -0.523426,-0.4136 z"
         style="fill:#808080;fill-opacity:1;fill-rule:nonzero;stroke:#f5f8f3;stroke-width:0.11420205;stroke-linecap:square;stroke-linejoin:miter;stroke-miterlimit:4;stroke-opacity:1;stroke-dasharray:none;stroke-dashoffset:0" />
      <path
         inkscape:connector-curvature="0"
         id="path3118"
         d="m 61.024409,1033.9126 c -1.028761,-0.6128 -1.539275,-1.5553 -2.191319,-4.0453 -0.728169,-2.7807 -0.30911,-6.0415 1.053921,-8.2006 0.257825,-0.4085 0.469168,-0.8086 0.469653,-0.8892 0.0013,-0.2087 1.085544,-1.3385 1.621971,-1.69 0.873185,-0.5721 1.838056,0.1967 2.890788,2.3034 1.154432,2.3103 1.468762,4.8524 0.94169,7.6161 -0.238655,1.2514 -0.485374,1.9461 -1.240924,3.4942 -0.684211,1.4019 -2.409056,2.0885 -3.54578,1.4114 l 0,0 z m 1.787861,-2.8611 c 1.268435,-1.2684 1.768455,-5.2412 0.953024,-7.572 -0.630334,-1.8018 -1.431536,-2.4275 -2.440259,-1.9059 -1.243656,0.6431 -1.91046,2.48 -1.903408,5.2434 0.0061,2.3773 0.509721,4.1058 1.31483,4.5124 0.779724,0.3938 1.500629,0.2973 2.075813,-0.2779 z"
         style="fill:#808080;fill-opacity:1;fill-rule:nonzero;stroke:#f5f8f3;stroke-width:0.11420205;stroke-linecap:square;stroke-linejoin:miter;stroke-miterlimit:4;stroke-opacity:1;stroke-dasharray:none;stroke-dashoffset:0" />
      <path
         inkscape:connector-curvature="0"
         id="path3120"
         d="m 63.827503,1033.1457 c 0.809669,-0.8518 1.789745,-3.066 2.16946,-4.9012 l 0.354428,-1.713 0.05382,2.1412 c 0.0435,1.7308 0.107358,2.1413 0.333089,2.1413 0.412029,0 0.348367,0.899 -0.104426,1.4746 -0.726234,0.9233 -1.537246,1.3805 -2.448774,1.3805 l -0.855147,0 0.497552,-0.5234 0,0 z"
         style="fill:#808080;fill-opacity:1;fill-rule:nonzero;stroke:#f5f8f3;stroke-width:0.11420205;stroke-linecap:square;stroke-linejoin:miter;stroke-miterlimit:4;stroke-opacity:1;stroke-dasharray:none;stroke-dashoffset:0" />
      <path
         inkscape:connector-curvature="0"
         id="path3122"
         d="m 49.926901,1031.6372 c -0.988161,-1.0426 -1.374085,-2.26 -1.372938,-4.331 0.0011,-2.0313 0.440346,-3.5129 1.494564,-5.0416 1.174323,-1.7028 1.52328,-1.7386 2.567516,-0.2632 0.530607,0.7496 0.541408,0.8179 0.626942,3.9629 0.04787,1.76 0.12981,3.2693 0.182093,3.3539 0.158319,0.2561 -0.902542,2.2327 -1.35881,2.5316 -0.956922,0.627 -1.383852,0.5846 -2.139367,-0.2126 z m 1.751696,-1.7895 c 0.271049,-0.3221 0.538442,-0.7718 0.594206,-0.9993 0.935611,-3.8165 -0.378132,-7.3709 -2.175466,-5.8858 -0.590021,0.4876 -1.215455,2.418 -1.224992,3.781 -0.0084,1.1928 0.441631,2.7415 0.975298,3.3567 0.459464,0.5296 1.266423,0.4183 1.830954,-0.2526 z"
         style="fill:#808080;fill-opacity:1;fill-rule:nonzero;stroke:#f5f8f3;stroke-width:0.11420205;stroke-linecap:square;stroke-linejoin:miter;stroke-miterlimit:4;stroke-opacity:1;stroke-dasharray:none;stroke-dashoffset:0" />
      <path
         inkscape:connector-curvature="0"
         id="path3126"
         d="m 51.921979,1031.9965 c 0.124585,-0.079 0.510017,-0.7065 0.856515,-1.394 0.622584,-1.2352 0.637078,-1.2481 1.231661,-1.0892 0.580021,0.155 0.593731,0.1818 0.381159,0.745 -0.386122,1.023 -1.329772,1.8885 -2.055345,1.8852 -0.36332,0 -0.542479,-0.065 -0.41399,-0.147 l 0,0 z"
         style="fill:#808080;fill-opacity:1;fill-rule:nonzero;stroke:#f5f8f3;stroke-width:0.11420205;stroke-linecap:square;stroke-linejoin:miter;stroke-miterlimit:4;stroke-opacity:1;stroke-dasharray:none;stroke-dashoffset:0" />
      <path
         inkscape:connector-curvature="0"
         id="path3128"
         d="m 69.15593,1025.4854 c -1.059994,-0.9876 -0.573122,-3.2411 0.698607,-3.2336 0.588404,0 0.791586,0.129 1.218721,0.7532 0.473621,0.6921 0.406317,1.5889 -0.170705,2.2747 -0.571176,0.6788 -1.163876,0.7486 -1.746623,0.2057 l 0,0 z"
         style="fill:#808080;fill-opacity:1;fill-rule:nonzero;stroke:#f5f8f3;stroke-width:0.11420205;stroke-linecap:square;stroke-linejoin:miter;stroke-miterlimit:4;stroke-opacity:1;stroke-dasharray:none;stroke-dashoffset:0" />
      <path
         inkscape:connector-curvature="0"
         id="path3130"
         d="m 83.891872,1023.4235 c -0.668522,-0.4735 -0.624963,-1.5991 0.0833,-2.1528 0.523027,-0.4089 0.617551,-0.4224 1.049391,-0.1507 0.629497,0.3962 0.876289,1.4768 0.486022,2.1281 -0.363968,0.6075 -0.92308,0.668 -1.618715,0.1754 z"
         style="fill:#808080;fill-opacity:1;fill-rule:nonzero;stroke:#f5f8f3;stroke-width:0.14265135;stroke-linecap:square;stroke-linejoin:miter;stroke-miterlimit:4;stroke-opacity:1;stroke-dasharray:none;stroke-dashoffset:0" />
      <path
         inkscape:connector-curvature="0"
         id="path3132"
         d="m 54.97877,1016.7882 c -0.402052,-0.105 -0.420227,-0.7185 -0.06096,-2.0576 0.293268,-1.0931 0.472306,-1.1348 1.92951,-0.4499 1.059695,0.4981 1.211843,0.8071 0.677489,1.3759 -0.222614,0.237 -0.404753,0.5294 -0.404753,0.6498 0,0.483 -1.148286,0.7413 -2.141289,0.4818 z"
         style="fill:#ffff00;fill-opacity:1;fill-rule:nonzero;stroke:#f5f8f3;stroke-width:0.11420205;stroke-linecap:square;stroke-linejoin:miter;stroke-miterlimit:4;stroke-opacity:1;stroke-dasharray:none;stroke-dashoffset:0" />
      <path
         inkscape:connector-curvature="0"
         id="path3134"
         d="m 74.772074,1013.0651 c -0.105589,-0.706 0.03114,-0.8354 1.068229,-1.0106 0.798619,-0.1349 1.066472,0.061 1.071863,0.7822 0.0044,0.5925 -0.371448,0.847 -1.250739,0.847 -0.753137,0 -0.801919,-0.034 -0.889353,-0.6186 z"
         style="fill:#ffff00;fill-opacity:1;fill-rule:nonzero;stroke:#f5f8f3;stroke-width:0.11420205;stroke-linecap:square;stroke-linejoin:miter;stroke-miterlimit:4;stroke-opacity:1;stroke-dasharray:none;stroke-dashoffset:0" />
    </g>
    <path
       style="fill:#0000ff;fill-opacity:1;fill-rule:nonzero;stroke:#f5f8f3;stroke-width:0.11420205;stroke-linecap:square;stroke-linejoin:miter;stroke-miterlimit:4;stroke-opacity:1;stroke-dasharray:none;stroke-dashoffset:0"
       d=""
       id="path3136"
       inkscape:connector-curvature="0"
       transform="translate(0,1002.3622)" />
    <path
       style="fill:#0000ff;fill-opacity:1;fill-rule:nonzero;stroke:#f5f8f3;stroke-width:0.11420205;stroke-linecap:square;stroke-linejoin:miter;stroke-miterlimit:4;stroke-opacity:1;stroke-dasharray:none;stroke-dashoffset:0"
       d=""
       id="path3138"
       inkscape:connector-curvature="0"
       transform="translate(0,1002.3622)" />
    <path
       style="fill:#0000ff;fill-opacity:1;fill-rule:nonzero;stroke:#f5f8f3;stroke-width:0.11420205;stroke-linecap:square;stroke-linejoin:miter;stroke-miterlimit:4;stroke-opacity:1;stroke-dasharray:none;stroke-dashoffset:0"
       d=""
       id="path3140"
       inkscape:connector-curvature="0"
       transform="translate(0,1002.3622)" />
    <path
       style="fill:#0000ff;fill-opacity:1;fill-rule:nonzero;stroke:#f5f8f3;stroke-width:0.11420205;stroke-linecap:square;stroke-linejoin:miter;stroke-miterlimit:4;stroke-opacity:1;stroke-dasharray:none;stroke-dashoffset:0"
       d=""
       id="path3142"
       inkscape:connector-curvature="0"
       transform="translate(0,1002.3622)" />
    <path
       style="fill:#0000ff;fill-opacity:1;fill-rule:nonzero;stroke:#f5f8f3;stroke-width:0.11420205;stroke-linecap:square;stroke-linejoin:miter;stroke-miterlimit:4;stroke-opacity:1;stroke-dasharray:none;stroke-dashoffset:0"
       d=""
       id="path3144"
       inkscape:connector-curvature="0"
       transform="translate(0,1002.3622)" />
    <path
       style="fill:#0000ff;fill-opacity:1;fill-rule:nonzero;stroke:#f5f8f3;stroke-width:0.11420205;stroke-linecap:square;stroke-linejoin:miter;stroke-miterlimit:4;stroke-opacity:1;stroke-dasharray:none;stroke-dashoffset:0"
       d=""
       id="path3146"
       inkscape:connector-curvature="0"
       transform="translate(0,1002.3622)" />
    <path
       style="fill:#0000ff;fill-opacity:1;fill-rule:nonzero;stroke:#f5f8f3;stroke-width:0.11420205;stroke-linecap:square;stroke-linejoin:miter;stroke-miterlimit:4;stroke-opacity:1;stroke-dasharray:none;stroke-dashoffset:0"
       d=""
       id="path3148"
       inkscape:connector-curvature="0"
       transform="translate(0,1002.3622)" />
    <path
       style="fill:#0000ff;fill-opacity:1;fill-rule:nonzero;stroke:#f5f8f3;stroke-width:0.11420205;stroke-linecap:square;stroke-linejoin:miter;stroke-miterlimit:4;stroke-opacity:1;stroke-dasharray:none;stroke-dashoffset:0"
       d=""
       id="path3150"
       inkscape:connector-curvature="0"
       transform="translate(0,1002.3622)" />
    <path
       style="fill:#0000ff;fill-opacity:1;fill-rule:nonzero;stroke:#f5f8f3;stroke-width:0.11420205;stroke-linecap:square;stroke-linejoin:miter;stroke-miterlimit:4;stroke-opacity:1;stroke-dasharray:none;stroke-dashoffset:0"
       d=""
       id="path3152"
       inkscape:connector-curvature="0"
       transform="translate(0,1002.3622)" />
  </g>
</svg>
