<?xml version="1.0" encoding="UTF-8" standalone="no"?>
<!-- Created with Inkscape (http://www.inkscape.org/) -->

<svg
   xmlns:dc="http://purl.org/dc/elements/1.1/"
   xmlns:cc="http://creativecommons.org/ns#"
   xmlns:rdf="http://www.w3.org/1999/02/22-rdf-syntax-ns#"
   xmlns:svg="http://www.w3.org/2000/svg"
   xmlns="http://www.w3.org/2000/svg"
   xmlns:sodipodi="http://sodipodi.sourceforge.net/DTD/sodipodi-0.dtd"
   xmlns:inkscape="http://www.inkscape.org/namespaces/inkscape"
   width="200"
   height="189"
   id="svg2"
   version="1.1"
   inkscape:version="0.48.3.1 r9886"
   sodipodi:docname="Logo90.svg">
  <defs
     id="defs4">
    <inkscape:perspective
       sodipodi:type="inkscape:persp3d"
       inkscape:vp_x="0 : 8 : 1"
       inkscape:vp_y="0 : 1000 : 0"
       inkscape:vp_z="16 : 8 : 1"
       inkscape:persp3d-origin="8 : 5.3333333 : 1"
       id="perspective3794" />
  </defs>
  <sodipodi:namedview
     id="base"
     pagecolor="#ffffff"
     bordercolor="#666666"
     borderopacity="1.0"
     inkscape:pageopacity="0.0"
     inkscape:pageshadow="2"
     inkscape:zoom="1.979899"
     inkscape:cx="96.413804"
     inkscape:cy="90.291382"
     inkscape:document-units="px"
     inkscape:current-layer="layer1"
     showgrid="true"
     inkscape:window-width="893"
     inkscape:window-height="673"
     inkscape:window-x="464"
     inkscape:window-y="60"
     inkscape:window-maximized="0">
    <inkscape:grid
       type="xygrid"
       id="grid2992"
       empspacing="5"
       visible="true"
       enabled="true"
       snapvisiblegridlinesonly="true" />
  </sodipodi:namedview>
  <metadata
     id="metadata7">
    <rdf:RDF>
      <cc:Work
         rdf:about="">
        <dc:format>image/svg+xml</dc:format>
        <dc:type
           rdf:resource="http://purl.org/dc/dcmitype/StillImage" />
        <dc:title></dc:title>
      </cc:Work>
    </rdf:RDF>
  </metadata>
  <g
     inkscape:label="Livello 1"
     inkscape:groupmode="layer"
     id="layer1"
     transform="translate(0,-863.3622)">
    <path
       style="fill:#0cf718;fill-opacity:1;fill-rule:nonzero;stroke:none"
       d="m 107.91414,867.53705 -2.76912,-2.46782 -10.029248,17.59823 -2.835994,3.63767 -78.171426,121.84677 17.452226,11.2744 72.353982,-112.75323 65.80946,118.21013 18.54301,-10.1851 -71.62683,-128.02933 -2.90869,-4.36496 -1.38456,-4.29177 -3.71155,-5.5291 1.31478,1.45574 z"
       id="path3857"
       inkscape:connector-curvature="0"
       sodipodi:nodetypes="ccccccccccccccc" />
    <path
       style="fill:#2817db;fill-opacity:1;fill-rule:nonzero;stroke:none"
       d="m 55.208808,898.4406 c -29.469253,0 -53.358808,20.48 -53.358808,45.74236 0,25.26236 23.889555,45.74236 53.358808,45.74236 17.443937,0 32.784114,-7.12893 42.520304,-18.22494 9.612208,12.03372 25.888938,19.65439 44.187778,19.65439 29.46924,0 53.35878,-20.47999 53.35878,-45.74235 0,-25.2624 -23.88954,-45.74238 -53.35879,-45.74238 -17.444,0 -32.78415,7.48686 -42.520313,18.58281 C 89.807608,906.28539 73.627093,898.4406 55.208808,898.4406 z m 0,18.22601 c 18.418284,0 33.349256,12.75756 33.349256,28.23109 -0.0046,0.25155 0,0.46885 0,0.70893 -0.44968,15.14075 -15.214331,27.15959 -33.349256,27.15959 -18.418282,0 -33.349256,-12.40076 -33.349256,-27.8743 0,-15.47347 14.930974,-28.23099 33.349256,-28.23099 z m 86.708072,1.42945 c 18.41826,0 33.34925,12.75757 33.34925,28.23111 0,15.47341 -14.93099,27.87421 -33.34925,27.87421 -18.41834,0 -33.34926,-12.4008 -33.34926,-27.87421 0,-15.47354 14.93092,-28.23111 33.34926,-28.23111 z"
       id="path3823"
       inkscape:connector-curvature="0" />
    <path
       style="fill:#0cf718;fill-opacity:1;fill-rule:nonzero;stroke:none"
       d="m 105.15446,865.20645 -10.200222,17.51076 -1.888917,2.50154 44.956409,81.12121 17.75583,-10.00614 -39.28954,-69.68562 -2.64456,-4.28835 -1.51111,-4.28835 -3.77785,-5.71779 1.5111,1.42945 -0.7555,-1.78682 -3.02236,-5.71778 -1.13328,-1.07211 z"
       id="path3854"
       inkscape:connector-curvature="0" />
    <path
       style="fill:#0cf718;fill-opacity:1;fill-rule:nonzero;stroke:none"
       d="m 105.15446,865.20645 -10.200222,17.51076 -2.644486,3.57363 -46.845283,72.90189 16.622518,10.72084 54.023223,-83.98009 -2.26675,-3.57363 -1.51111,-4.28835 -3.77785,-5.71779 1.5111,1.42945 -2.26675,-6.07518 -2.64439,-2.50153 z"
       id="rect3836"
       inkscape:connector-curvature="0" />
    <rect
       style="fill:#2817db;fill-opacity:1;fill-rule:nonzero;stroke:none"
       id="rect3834"
       width="25.048634"
       height="49.623009"
       x="-359.06595"
       y="-894.96704"
       transform="matrix(-0.90336347,-0.42887579,0.25409843,-0.96717836,0,0)"
       ry="0" />
    <path
       sodipodi:type="arc"
       style="fill:none;stroke:#0cf718;stroke-width:0.97256541;stroke-linecap:square;stroke-linejoin:miter;stroke-miterlimit:4;stroke-opacity:0.97600002;stroke-dasharray:none;stroke-dashoffset:0"
       id="path3896"
       sodipodi:cx="4"
       sodipodi:cy="8.5"
       sodipodi:rx="4"
       sodipodi:ry="2.5"
       d="M 8,8.5 A 4,2.5 0 1 1 0.19526127,7.7284443"
       transform="matrix(0,9.1599013,-16.911171,0,197.49025,907.47585)"
       sodipodi:start="0"
       sodipodi:end="3.4553369"
       sodipodi:open="true" />
    <text
       xml:space="preserve"
       style="font-size:18.72370147999999901px;font-style:normal;font-weight:normal;line-height:125%;letter-spacing:0px;word-spacing:0px;fill:#2817db;fill-opacity:1;stroke:none;font-family:Sans"
       x="104.03711"
       y="1001.366"
       id="text2990"
       sodipodi:linespacing="125%"
       transform="scale(0.9794631,1.0209675)"><tspan
         sodipodi:role="line"
         id="tspan2992"
         x="104.03711"
         y="1001.366">s.r.l.s.</tspan></text>
    <text
       xml:space="preserve"
       style="font-size:18.5986824px;font-style:normal;font-weight:normal;line-height:125%;letter-spacing:0px;word-spacing:0px;fill:#2817db;fill-opacity:1;stroke:none;font-family:Sans"
       x="8.3307467"
       y="766.93976"
       id="text3762"
       sodipodi:linespacing="125%"
       transform="scale(0.73225836,1.3656382)"><tspan
         sodipodi:role="line"
         id="tspan3764"
         x="8.3307467"
         y="766.93976">Consulenza Automobilistica</tspan></text>
  </g>
</svg>
