<?xml version="1.0" encoding="UTF-8" standalone="no"?>
<!-- Created with Inkscape (http://www.inkscape.org/) -->

<svg
   xmlns:dc="http://purl.org/dc/elements/1.1/"
   xmlns:cc="http://creativecommons.org/ns#"
   xmlns:rdf="http://www.w3.org/1999/02/22-rdf-syntax-ns#"
   xmlns:svg="http://www.w3.org/2000/svg"
   xmlns="http://www.w3.org/2000/svg"
   xmlns:xlink="http://www.w3.org/1999/xlink"
   xmlns:sodipodi="http://sodipodi.sourceforge.net/DTD/sodipodi-0.dtd"
   xmlns:inkscape="http://www.inkscape.org/namespaces/inkscape"
   version="1.1"
   width="123"
   height="25"
   id="svg2"
   inkscape:version="0.48.4 r9939"
   sodipodi:docname="Logo90s.svg">
  <sodipodi:namedview
     pagecolor="#ffffff"
     bordercolor="#666666"
     borderopacity="1"
     objecttolerance="10"
     gridtolerance="10"
     guidetolerance="10"
     inkscape:pageopacity="0"
     inkscape:pageshadow="2"
     inkscape:window-width="1214"
     inkscape:window-height="770"
     id="namedview3053"
     showgrid="true"
     inkscape:zoom="8.2892516"
     inkscape:cx="90.494976"
     inkscape:cy="-1.5409315"
     inkscape:window-x="154"
     inkscape:window-y="121"
     inkscape:window-maximized="0"
     inkscape:current-layer="svg2">
    <inkscape:grid
       type="xygrid"
       id="grid4001"
       empspacing="5"
       visible="true"
       enabled="true"
       snapvisiblegridlinesonly="true" />
  </sodipodi:namedview>
  <defs
     id="defs4">
    <linearGradient
       id="linearGradient4539">
      <stop
         style="stop-color:#ba131b;stop-opacity:1;"
         offset="0"
         id="stop4541" />
      <stop
         id="stop4547"
         offset="0.53333336"
         style="stop-color:#ba131b;stop-opacity:0.80658436" />
      <stop
         style="stop-color:#ffffff;stop-opacity:0.404"
         offset="1"
         id="stop4543" />
    </linearGradient>
    <style
       type="text/css"
       id="style3985">@import url(http://fonts.googleapis.com/css?family=Roboto:400,400italic,500,500italic,700,700italic,900,900italic);</style>
    <linearGradient
       inkscape:collect="always"
       xlink:href="#linearGradient4539"
       id="linearGradient4545"
       x1="15"
       y1="80"
       x2="15"
       y2="65"
       gradientUnits="userSpaceOnUse" />
    <filter
       inkscape:collect="always"
       id="filter4556"
       color-interpolation-filters="sRGB">
      <feGaussianBlur
         inkscape:collect="always"
         stdDeviation="0.19051595"
         id="feGaussianBlur4558" />
    </filter>
    <linearGradient
       inkscape:collect="always"
       xlink:href="#linearGradient4539"
       id="linearGradient4565"
       gradientUnits="userSpaceOnUse"
       x1="15"
       y1="80"
       x2="15"
       y2="65" />
  </defs>
  <metadata
     id="metadata7">
    <rdf:RDF>
      <cc:Work
         rdf:about="">
        <dc:format>image/svg+xml</dc:format>
        <dc:type
           rdf:resource="http://purl.org/dc/dcmitype/StillImage" />
        <dc:title />
      </cc:Work>
    </rdf:RDF>
  </metadata>
  <g
     transform="matrix(0.31676697,0,0,0.24323211,0.33083985,-231.18689)"
     id="layer1">
    <path
       d="m 68.976266,955.42051 -1.715678,-1.23186 -6.213871,8.78451 -1.757111,1.81582 -48.43306,60.82222 10.812962,5.6279 44.828718,-56.28306 40.773894,59.00696 11.48878,-5.0841 -44.378183,-63.9084 -1.802155,-2.17887 -0.857837,-2.14232 -2.299585,-2.75995 0.814605,0.72666 z"
       id="path3857"
       style="fill:#0cf718;fill-opacity:1;fill-rule:nonzero;stroke:none"
       inkscape:connector-curvature="0" />
    <path
       d="m 36.32136,970.84664 c -18.258412,0 -33.0597828,10.22301 -33.0597828,22.83322 0,12.61014 14.8013708,22.83314 33.0597828,22.83314 10.807828,0 20.312217,-3.5585 26.344517,-9.0973 5.955484,6.0069 16.040135,9.8109 27.377639,9.8109 18.258394,0 33.059764,-10.223 33.059764,-22.83319 0,-12.61024 -14.80137,-22.83323 -33.059764,-22.83323 -10.807867,0 -20.312243,3.73722 -26.344525,9.27598 -5.94108,-6.07363 -15.966122,-9.98952 -27.377631,-9.98952 z m 0,9.09789 c 11.411508,0 20.662365,6.36819 20.662365,14.09212 -0.0028,0.12556 0,0.23403 0,0.35387 -0.27861,7.55778 -9.426419,13.55728 -20.662365,13.55728 -11.411507,0 -20.662365,-6.1901 -20.662365,-13.91404 0,-7.7239 9.250858,-14.09207 20.662365,-14.09207 z m 53.722156,0.71354 c 11.411494,0 20.662354,6.36819 20.662354,14.09212 0,7.72381 -9.25086,13.91401 -20.662354,13.91401 -11.411549,0 -20.66237,-6.1902 -20.66237,-13.91401 0,-7.72393 9.250821,-14.09212 20.66237,-14.09212 z"
       id="path3823"
       style="fill:#2817db;fill-opacity:1;fill-rule:nonzero;stroke:none"
       inkscape:connector-curvature="0" />
    <path
       d="m 67.266437,954.25715 -6.319803,8.74085 -1.170325,1.24869 27.853867,40.49321 11.001065,-4.99465 -24.342809,-34.78503 -1.638505,-2.14061 -0.936253,-2.14061 -2.340658,-2.85416 0.936241,0.71354 -0.468089,-0.89192 -1.872579,-2.85415 -0.702152,-0.53516 z"
       id="path3854"
       style="fill:#0cf718;fill-opacity:1;fill-rule:nonzero;stroke:none"
       inkscape:connector-curvature="0" />
    <path
       d="m 67.266437,954.25715 -6.319803,8.74085 -1.638457,1.78384 -29.024166,36.39046 10.298897,5.3515 33.47144,-41.92034 -1.404421,-1.78385 -0.936253,-2.14061 -2.340658,-2.85416 0.936241,0.71354 -1.404422,-3.03255 -1.638398,-1.24868 z"
       id="rect3836"
       style="fill:#0cf718;fill-opacity:1;fill-rule:nonzero;stroke:none"
       inkscape:connector-curvature="0" />
    <rect
       width="15.010315"
       height="25.198917"
       ry="0"
       x="-379.33475"
       y="-942.22656"
       transform="matrix(-0.93400811,-0.35725179,0.31002525,-0.95072832,0,0)"
       id="rect3834"
       style="fill:#2817db;fill-opacity:1;fill-rule:nonzero;stroke:none" />
    <path
       d="M 8,8.5 A 4,2.5 0 1 1 0.19526127,7.7284443"
       transform="matrix(0,4.5723497,-10.477739,0,124.47537,975.35677)"
       id="path3896"
       style="fill:none;stroke:#0cf718;stroke-width:0.97256541;stroke-linecap:square;stroke-linejoin:miter;stroke-miterlimit:4;stroke-opacity:0.97600002;stroke-dasharray:none;stroke-dashoffset:0"
       inkscape:connector-curvature="0" />
    <text
       x="59.796017"
       y="1126.9036"
       transform="scale(1.0912159,0.91640893)"
       id="text2990"
       xml:space="preserve"
       style="font-size:10.41269112px;font-style:normal;font-weight:normal;line-height:125%;letter-spacing:0px;word-spacing:0px;fill:#2817db;fill-opacity:1;stroke:none;font-family:Sans"
       sodipodi:linespacing="125%"><tspan
         x="59.796017"
         y="1126.9036"
         id="tspan2992">s.r.l.s.</tspan></text>
    <text
       x="7.2258973"
       y="852.66748"
       transform="scale(0.81580613,1.2257814)"
       id="text3762"
       xml:space="preserve"
       style="font-size:10.34316444px;font-style:normal;font-weight:normal;line-height:125%;letter-spacing:0px;word-spacing:0px;fill:#2817db;fill-opacity:1;stroke:none;font-family:Sans"
       sodipodi:linespacing="125%"><tspan
         x="7.2258973"
         y="852.66748"
         id="tspan3764">Consulenza Automobilistica</tspan></text>
  </g>
  <text
     xml:space="preserve"
     x="76.884766"
     y="16.310122"
     id="text3055"
     transform="scale(0.7413692,1.3488556)"
     style="font-size:20.25933837999999909px;font-style:normal;font-variant:normal;font-weight:normal;font-stretch:normal;text-align:start;line-height:125%;letter-spacing:0px;word-spacing:0px;writing-mode:lr-tb;text-anchor:start;fill:#bd2a07;fill-opacity:1;stroke:none;font-family:Sans;-inkscape-font-specification:Sans"
     sodipodi:linespacing="125%"><tspan
       sodipodi:role="line"
       id="tspan3057"
       x="76.884766"
       y="16.310122">90 s.r.l.s</tspan></text>
</svg>
