<?xml version="1.0" encoding="UTF-8" standalone="no"?>
<!-- Created with Inkscape (http://www.inkscape.org/) -->

<svg
   xmlns:dc="http://purl.org/dc/elements/1.1/"
   xmlns:cc="http://creativecommons.org/ns#"
   xmlns:rdf="http://www.w3.org/1999/02/22-rdf-syntax-ns#"
   xmlns:svg="http://www.w3.org/2000/svg"
   xmlns="http://www.w3.org/2000/svg"
   xmlns:xlink="http://www.w3.org/1999/xlink"
   xmlns:sodipodi="http://sodipodi.sourceforge.net/DTD/sodipodi-0.dtd"
   xmlns:inkscape="http://www.inkscape.org/namespaces/inkscape"
   width="1020"
   height="300"
   id="svg2"
   version="1.1"
   inkscape:version="0.48.4 r9939"
   sodipodi:docname="services.svg"
   inkscape:export-filename="/home/dmike/Development/web-developing/agenzia90/www/public_html/resources/services.png"
   inkscape:export-xdpi="90"
   inkscape:export-ydpi="90">
  <defs
     id="defs4">
    <linearGradient
       inkscape:collect="always"
       id="linearGradient4604">
      <stop
         style="stop-color:#3e244c;stop-opacity:1;"
         offset="0"
         id="stop4606" />
      <stop
         style="stop-color:#3e244c;stop-opacity:0;"
         offset="1"
         id="stop4608" />
    </linearGradient>
    <linearGradient
       inkscape:collect="always"
       id="linearGradient4596">
      <stop
         style="stop-color:#db5528;stop-opacity:1;"
         offset="0"
         id="stop4598" />
      <stop
         style="stop-color:#db5528;stop-opacity:0;"
         offset="1"
         id="stop4600" />
    </linearGradient>
    <linearGradient
       inkscape:collect="always"
       id="linearGradient4588">
      <stop
         style="stop-color:#48b8e7;stop-opacity:1;"
         offset="0"
         id="stop4590" />
      <stop
         style="stop-color:#48b8e7;stop-opacity:0;"
         offset="1"
         id="stop4592" />
    </linearGradient>
    <linearGradient
       id="linearGradient4875">
      <stop
         id="stop4877"
         offset="0"
         style="stop-color:#57c72c;stop-opacity:1" />
      <stop
         style="stop-color:#142da2;stop-opacity:0.27272727"
         offset="0.7066716"
         id="stop4879" />
      <stop
         id="stop4881"
         offset="1"
         style="stop-color:#f3f0f1;stop-opacity:0.72727273" />
    </linearGradient>
    <linearGradient
       id="linearGradient4858">
      <stop
         style="stop-color:#1c5fc6;stop-opacity:1;"
         offset="0"
         id="stop4860" />
      <stop
         id="stop4866"
         offset="0.86382115"
         style="stop-color:#142da2;stop-opacity:1" />
      <stop
         style="stop-color:#f3f0f1;stop-opacity:0.72727273"
         offset="1"
         id="stop4862" />
    </linearGradient>
    <linearGradient
       inkscape:collect="always"
       xlink:href="#linearGradient4875"
       id="linearGradient4886"
       gradientUnits="userSpaceOnUse"
       x1="557.60419"
       y1="1230.8275"
       x2="975.80737"
       y2="1226.7869"
       gradientTransform="matrix(1.0264227,0,0,0.97878788,22.960227,-872.00285)" />
    <filter
       color-interpolation-filters="sRGB"
       id="filter3121">
      <feFlood
         result="flood"
         flood-color="rgb(0,0,0)"
         flood-opacity="0.5"
         id="feFlood3123" />
      <feComposite
         in2="SourceGraphic"
         operator="in"
         in="flood"
         result="composite1"
         id="feComposite3125" />
      <feGaussianBlur
         result="blur"
         stdDeviation="2"
         id="feGaussianBlur3127" />
      <feOffset
         result="offset"
         dy="4"
         dx="4"
         id="feOffset3129" />
      <feComposite
         in2="offset"
         operator="over"
         in="SourceGraphic"
         result="composite2"
         id="feComposite3131" />
    </filter>
    <filter
       id="filter5218"
       x="-0.25"
       width="1.5"
       y="-0.25"
       height="1.5"
       inkscape:menu="Non realistic 3D shaders"
       inkscape:menu-tooltip="Silky close to mother of pearl shading"
       inkscape:label="Satin"
       color-interpolation-filters="sRGB">
      <feGaussianBlur
         id="feGaussianBlur5220"
         result="result8"
         stdDeviation="7" />
      <feComposite
         id="feComposite5222"
         in2="result8"
         in="result8"
         operator="xor"
         result="result6" />
      <feDisplacementMap
         id="feDisplacementMap5224"
         in2="result6"
         result="result4"
         scale="75"
         yChannelSelector="A"
         xChannelSelector="A"
         in="result6" />
      <feComposite
         id="feComposite5226"
         in2="result4"
         k1="1"
         in="SourceGraphic"
         operator="arithmetic"
         result="result2"
         k2="0"
         k3="0"
         k4="0" />
      <feComposite
         id="feComposite5228"
         in2="result2"
         operator="in"
         in="result8"
         result="fbSourceGraphic" />
    </filter>
    <filter
       id="filter4019"
       style="color-interpolation-filters:sRGB;"
       inkscape:label="Drop Shadow">
      <feFlood
         id="feFlood4021"
         flood-opacity="0.37"
         flood-color="rgb(0,0,0)"
         result="flood" />
      <feComposite
         id="feComposite4023"
         in2="SourceGraphic"
         in="flood"
         operator="in"
         result="composite1" />
      <feGaussianBlur
         id="feGaussianBlur4025"
         in="composite"
         stdDeviation="2"
         result="blur" />
      <feOffset
         id="feOffset4027"
         dx="-1.1"
         dy="2"
         result="offset" />
      <feComposite
         id="feComposite4029"
         in2="offset"
         in="SourceGraphic"
         operator="over"
         result="composite2" />
    </filter>
    <filter
       id="filter4459"
       style="color-interpolation-filters:sRGB;"
       inkscape:label="Drop Shadow">
      <feFlood
         id="feFlood4461"
         flood-opacity="0.4"
         flood-color="rgb(0,0,0)"
         result="flood" />
      <feComposite
         id="feComposite4463"
         in2="SourceGraphic"
         in="flood"
         operator="in"
         result="composite1" />
      <feGaussianBlur
         id="feGaussianBlur4465"
         in="composite"
         stdDeviation="7.4"
         result="blur" />
      <feOffset
         id="feOffset4467"
         dx="3.5"
         dy="5.9"
         result="offset" />
      <feComposite
         id="feComposite4469"
         in2="offset"
         in="SourceGraphic"
         operator="over"
         result="composite2" />
    </filter>
    <filter
       inkscape:collect="always"
       id="filter4527"
       x="-0.024464435"
       width="1.0489289"
       y="-1.2642176"
       height="3.5284353">
      <feGaussianBlur
         inkscape:collect="always"
         stdDeviation="10.013131"
         id="feGaussianBlur4529" />
    </filter>
    <linearGradient
       inkscape:collect="always"
       xlink:href="#linearGradient4588"
       id="linearGradient4594"
       x1="281.99997"
       y1="984.505"
       x2="280.57138"
       y2="1047.3621"
       gradientUnits="userSpaceOnUse" />
    <linearGradient
       inkscape:collect="always"
       xlink:href="#linearGradient4596"
       id="linearGradient4602"
       x1="502.57138"
       y1="988.79071"
       x2="499.71423"
       y2="1077.3621"
       gradientUnits="userSpaceOnUse" />
    <linearGradient
       inkscape:collect="always"
       xlink:href="#linearGradient4604"
       id="linearGradient4610"
       x1="680.85712"
       y1="990.21924"
       x2="682.28564"
       y2="1068.7906"
       gradientUnits="userSpaceOnUse" />
  </defs>
  <sodipodi:namedview
     id="base"
     pagecolor="#ffffff"
     bordercolor="#666666"
     borderopacity="1.0"
     inkscape:pageopacity="0.0"
     inkscape:pageshadow="2"
     inkscape:zoom="0.9899495"
     inkscape:cx="561.90846"
     inkscape:cy="281.32797"
     inkscape:document-units="px"
     inkscape:current-layer="layer1"
     showgrid="false"
     inkscape:window-width="1535"
     inkscape:window-height="876"
     inkscape:window-x="65"
     inkscape:window-y="24"
     inkscape:window-maximized="1"
     showguides="true"
     inkscape:guide-bbox="true" />
  <metadata
     id="metadata7">
    <rdf:RDF>
      <cc:Work
         rdf:about="">
        <dc:format>image/svg+xml</dc:format>
        <dc:type
           rdf:resource="http://purl.org/dc/dcmitype/StillImage" />
        <dc:title></dc:title>
      </cc:Work>
    </rdf:RDF>
  </metadata>
  <g
     inkscape:groupmode="layer"
     id="layer2"
     inkscape:label="sfondo"
     transform="translate(0,-351)"
     sodipodi:insensitive="true">
    <rect
       style="fill:#eeeeee;fill-opacity:1;fill-rule:nonzero;stroke:#eeeff0;stroke-width:1.39189422;stroke-linecap:round;stroke-linejoin:round;stroke-miterlimit:4;stroke-opacity:1;stroke-dasharray:none;stroke-dashoffset:0;filter:url(#filter4459)"
       id="rect3843"
       width="983.08185"
       height="267.26587"
       x="14.741649"
       y="365.73871" />
    <g
       transform="matrix(0.47843375,0,0,0.45076685,-3.6700742,368.21302)"
       id="Livello_x0020_1"
       style="fill-rule:evenodd">
      <metadata
         id="CorelCorpID_0Corel-Layer" />
      <g
         id="_256052240">
        <path
           d="m 101.653,62.6881 c -0.3524,0.7759 -0.7337,1.5421 -1.1197,2.3014 -1.0548,2.0747 -2.1685,4.1256 -3.2875,6.1664 -1.0117,1.8454 -2.0353,3.6842 -3.0586,5.5234 -0.6939,1.2471 -1.4007,2.4961 -2.0681,3.7575 l -0.4,0.7558 -12.8445,0 1.1027,-2.0839 c 0.9414,-1.7793 1.975,-3.5317 2.95,-5.2957 0.6203,-1.1225 1.2368,-2.2531 1.8109,-3.3998 0.0496,-0.099 0.1069,-0.212 0.1684,-0.3341 -9.3669,-0.3414 -16.6616,-3.1366 -21.4668,-12.1033 -1.5021,-2.803 -2.4093,-6.794 -2.4093,-9.9878 0,-5.9681 2.0924,-11.5431 6.2923,-15.8181 7.2909,-7.421 19.2713,-9.0246 28.3073,-3.9361 1.8157,1.0225 4.3627,2.6084 5.7849,4.5352 0.5688,-0.7921 1.3277,-1.3685 2.2612,-2.0867 4.4154,-3.3966 9.6718,-5.3909 15.2675,-5.415 5.0144,-0.0216 9.9313,1.5602 13.9589,4.5549 5.8178,4.3255 8.9846,10.9419 8.9846,18.1658 0,6.1973 -2.5044,11.877 -7.0889,16.0447 -7.4725,6.7928 -18.6143,8.0672 -27.4445,3.1751 -1.6506,-0.9145 -3.3295,-1.9923 -4.6622,-3.3424 -0.3628,-0.3675 -0.6878,-0.7497 -1.0147,-1.1482 -0.008,-0.0096 -0.0158,-0.0193 -0.0239,-0.0291 z m 5.56,-15.1817 c 0,4.4222 2.1405,8.2085 6.1111,10.2277 4.3022,2.1879 9.6727,1.6976 13.3228,-1.5351 2.9442,-2.6074 4.2943,-6.6187 3.6414,-10.4834 -0.4286,-2.5365 -1.6917,-4.8229 -3.6703,-6.4778 -2.4626,-2.0596 -5.6275,-2.8327 -8.7853,-2.8327 -2.6825,0 -5.3175,1.343 -7.2026,3.1955 -2.1325,2.0955 -3.4171,4.8978 -3.4171,7.9058 z M 72.5389,46.5432 c 0,4.2328 0.2591,6.4475 3.5036,9.4446 3.4262,3.1649 7.824,4.2081 12.1774,2.3701 0.9017,-0.3807 1.7571,-0.8706 2.5467,-1.4489 2.1725,-1.5917 3.886,-3.8854 4.653,-6.4789 1.157,-3.912 -0.0497,-7.5972 -2.8014,-10.5161 -2.7556,-2.9227 -6.6066,-4.028 -10.5226,-3.3155 -3.4811,0.6334 -6.9151,2.7477 -8.5727,5.9463 -0.6453,1.2452 -0.984,2.5948 -0.984,3.9984 z"
           id="_256049696"
           style="fill:#0000ff"
           inkscape:connector-curvature="0" />
        <polygon
           points="101.51,11.9254 135.013,81.1275 125.77,81.1275 101.435,30.8633 74.9901,81.1276 65.7186,81.1276 "
           id="_256049576"
           style="fill:#00ff00" />
        <path
           d="m 126.593,56.2532 c 0.2962,-0.0591 9.8767,6.2454 8.1514,7.8337 -5.7041,5.1852 -13.5129,7.0961 -20.8327,5.5622 -2.2693,-0.4756 1.1072,-10.97 -0.8373,-12.0458 4.4476,2.27 9.8685,1.8827 13.5186,-1.3501 z m -35.8804,0.71 c 0.2776,-0.6107 -6.362,14.1708 -6.0283,13.5042 0.0496,-0.099 0.1069,-0.212 0.1684,-0.3341 -6.5145,-0.2374 -12.0268,-1.6618 -16.3961,-5.5235 -1.9132,-1.6909 8.8867,-5.9587 7.5864,-8.622 3.5892,3.2322 7.7697,4.2623 12.123,2.4243 0.9017,-0.3806 1.7571,-0.8706 2.5466,-1.4489 z"
           id="_256050848"
           style="fill:#0000ff"
           inkscape:connector-curvature="0" />
        <path
           d="m 87.8926,34.3542 3.3338,-6.4116 C 73.3948,24.2912 63.2729,36.2653 63.2729,47.641 c 0,11.3758 8.7683,18.793 16.4685,19.9746 l 3.4665,-6.2817 C 76.1454,60.968 70.3196,55.1251 70.3196,47.641 c 0,-7.4841 6.7551,-15.4565 17.573,-13.2868 z"
           id="_256051160"
           style="fill:#00ff00"
           inkscape:connector-curvature="0" />
        <g
           transform="matrix(0.878312,0,0,1,-30.0499,-60.2955)"
           id="g92">
          <text
             x="105"
             y="148.5"
             id="_256052288"
             style="font-size:6.71640015px;font-weight:bold;fill:#0000ff;font-family:Arial">Consulenza Automobilistica</text>
        </g>
        <g
           transform="matrix(0.878312,0,0,1,5.9671,-67.3858)"
           id="g95">
          <text
             x="105"
             y="148.5"
             id="_256051856"
             style="font-size:6.71640015px;font-weight:bold;fill:#0000ff;font-family:Arial">s.r.l.s.</text>
        </g>
      </g>
    </g>
    <text
       xml:space="preserve"
       style="font-size:23.09591675px;font-style:italic;font-weight:normal;line-height:125%;letter-spacing:1.22903264px;word-spacing:0px;fill:#000000;fill-opacity:1;stroke:none;font-family:Sans;-inkscape-font-specification:Sans Italic"
       x="99.588409"
       y="395.98053"
       id="text3845"
       sodipodi:linespacing="125%"
       transform="scale(0.99122611,1.0088516)"><tspan
         sodipodi:role="line"
         id="tspan3847"
         x="99.588409"
         y="395.98053">Servizi</tspan></text>
    <rect
       style="fill:#faffff;fill-opacity:1;fill-rule:nonzero;stroke:#eeeff0;stroke-width:2.03842068;stroke-linecap:round;stroke-linejoin:round;stroke-miterlimit:4;stroke-opacity:1;stroke-dasharray:none;stroke-dashoffset:0;filter:url(#filter4019)"
       id="rect3849"
       width="1015.647"
       height="44.34758"
       x="3.9834967"
       y="438.38324"
       transform="matrix(0.96651301,0,0,0.89088622,11.98017,51.255868)" />
    <text
       xml:space="preserve"
       style="font-size:10.20722389px;font-style:normal;font-weight:normal;line-height:125%;letter-spacing:-0.59387487px;word-spacing:0px;fill:#676566;fill-opacity:1;stroke:none;font-family:Sans;-inkscape-font-specification:Sans"
       x="51.713768"
       y="483.08438"
       id="text4031"
       sodipodi:linespacing="125%"
       transform="scale(1.0415802,0.96007972)"><tspan
         sodipodi:role="line"
         id="tspan4033"
         x="51.713768"
         y="483.08438">Scopri i nostri servizi</tspan></text>
    <path
       id="path4045"
       style="fill:none;stroke:#676566;stroke-width:1.78888726;stroke-linecap:butt;stroke-linejoin:miter;stroke-miterlimit:4;stroke-opacity:1;stroke-dasharray:none"
       d="m 31.563105,463.32796 5.826596,6.83029 m -4.351078,-11.39296 c 0,2.84485 -2.169637,5.15105 -4.846038,5.15105 -2.676377,0 -4.846037,-2.3062 -4.846037,-5.15105 0,-2.84485 2.16966,-5.15105 4.846037,-5.15105 2.676401,0 4.846038,2.3062 4.846038,5.15105 z"
       inkscape:connector-curvature="0" />
  </g>
  <g
     inkscape:label="scritte"
     inkscape:groupmode="layer"
     id="layer1"
     transform="translate(0,-752.36218)">
    <rect
       style="fill:url(#linearGradient4594);fill-opacity:1;fill-rule:nonzero;stroke:none;stroke-opacity:1"
       id="rect4584"
       width="194.28572"
       height="95.714287"
       x="189.14282"
       y="939.505" />
    <rect
       style="opacity:0.72363639999999996;fill:#525356;fill-opacity:1;stroke:none;filter:url(#filter4527)"
       id="rect4533"
       width="982.30408"
       height="19.009001"
       x="15.006191"
       y="616.8501"
       transform="matrix(1,0,0,2.3205419,2,-442.05102)" />
    <rect
       style="opacity:1;fill:url(#linearGradient4610);fill-opacity:1;fill-rule:nonzero;stroke:none"
       id="rect4546"
       width="194.28572"
       height="95.714287"
       x="575.14282"
       y="939.505" />
    <rect
       y="939.505"
       x="381.14282"
       height="95.714287"
       width="194.28572"
       id="rect4580"
       style="fill:url(#linearGradient4602);fill-opacity:1;fill-rule:nonzero;stroke:none" />
    <text
       xml:space="preserve"
       style="font-size:14px;font-style:normal;font-weight:normal;line-height:125%;letter-spacing:1.51000011000000001px;word-spacing:0px;fill:#fdfffe;fill-opacity:1;stroke:none;font-family:Sans;-inkscape-font-specification:Sans"
       x="204.05081"
       y="967.50934"
       id="text4612"
       sodipodi:linespacing="125%"><tspan
         sodipodi:role="line"
         id="tspan4614"
         x="204.05081"
         y="967.50934">Rinnovo Patente</tspan></text>
    <text
       xml:space="preserve"
       style="font-size:14px;font-style:normal;font-weight:normal;line-height:125%;letter-spacing:1.50999999px;word-spacing:0px;fill:#fafbfd;fill-opacity:1;stroke:none;font-family:Sans;-inkscape-font-specification:Sans"
       x="396.98996"
       y="966.1524"
       id="text4616"
       sodipodi:linespacing="125%"><tspan
         sodipodi:role="line"
         id="tspan4618"
         x="396.98996"
         y="966.1524">Pagamento Bolli</tspan></text>
    <text
       xml:space="preserve"
       style="font-size:14px;font-style:normal;font-weight:normal;line-height:125%;letter-spacing:1.50999999px;word-spacing:0px;fill:#feffff;fill-opacity:1;stroke:none;font-family:Sans;-inkscape-font-specification:Sans"
       x="590.97986"
       y="966.43268"
       id="text4620"
       sodipodi:linespacing="125%"><tspan
         sodipodi:role="line"
         id="tspan4622"
         x="590.97986"
         y="966.43268">Passaggi gi propietà</tspan></text>
  </g>
</svg>
